<?xml version="1.0" standalone="no"?>
<!DOCTYPE svg PUBLIC "-//W3C//DTD SVG 1.1//EN" "http://www.w3.org/Graphics/SVG/1.1/DTD/svg11.dtd" >
<svg>
<metadata>
Created by FontForge 20110222 at Mon Mar  7 08:28:39 2011
 By www-data
(c) Jakob Fischer at www.pizzadude.dk - DO NOT DISTRIBUTE WITHOUT AUTHOR'S PERMISSION!
</metadata>
<defs>
<font id="Videophreak" horiz-adv-x="727" >
  <font-face 
    font-family="Videophreak"
    font-weight="400"
    font-stretch="normal"
    units-per-em="1000"
    panose-1="0 0 4 0 0 0 0 0 0 0"
    ascent="800"
    descent="-200"
    x-height="470"
    cap-height="692"
    bbox="-43.1875 -308 919.19 988"
    underline-thickness="20"
    underline-position="-123"
    unicode-range="U+0020-00FF"
  />
    <missing-glyph />
    <glyph glyph-name="space" unicode=" " horiz-adv-x="365" 
 />
    <glyph glyph-name="exclam" unicode="!" horiz-adv-x="283" 
d="M218 261q-4 -40 -41 -69t-78 -29q-43 0 -75 28.5t-28 70.5l29 332q4 43 40 70.5t80 27.5q41 0 74 -28t29 -69zM198 26q-5 -50 -38 -80.5t-83 -30.5t-77.5 30.5t-23.5 80.5t37.5 80.5t83.5 30.5q49 0 77.5 -31t23.5 -80z" />
    <glyph glyph-name="quotedbl" unicode="&#x22;" horiz-adv-x="337" 
d="M265 507q-13 -37 -57 -37q-52 0 -52 52q0 -26 7 48l8 86q13 36 56 36q52 0 52 -54q0 11 -6 -55.5t-8 -75.5zM102 507q-12 -37 -56 -37q-52 0 -52 52q0 -20 6 48l8 86q13 36 57 36q52 0 52 -54q0 9 -6 -56t-9 -75z" />
    <glyph glyph-name="numbersign" unicode="#" horiz-adv-x="605" 
d="M546 193q-4 -45 -37 -53q-38 -1 -76 -3l-14 -79q-11 -32 -54 -32q-51 0 -51 45q0 10 2 31l3 32q-3 3 -108 3l-14 -79q-11 -32 -55 -32q-50 0 -50 45q0 10 2 31l3 32l-81 8q-30 6 -26 51q4 44 37 52l77 3q3 3 12 108l-80 8q-30 6 -26 51q4 44 36 52q39 1 77 3q7 41 15 81
q9 30 53 30q50 0 50 -46q0 -10 -2 -31t-2 -31q3 -3 108 -3q8 41 15 81q9 30 53 30q50 0 50 -45q0 -11 -2 -31.5t-2 -31.5q39 -3 79 -7q31 -7 27 -51q-4 -45 -37 -53q-38 -1 -76 -3q-3 -3 -13 -108q40 -3 79 -7q32 -8 28 -51zM328 249l10 110h-110l-10 -110h110z" />
    <glyph glyph-name="dollar" unicode="$" horiz-adv-x="595" 
d="M347 25q-17 0 -35 1l-14 -79q-10 -32 -54 -32q-51 0 -51 45q0 8 2 30l3 33q-3 3 -176 3q-20 -4 -32 17q-11 18 -9 38t13 36q13 20 31 20h183l9 108q-208 -6 -208 145q0 193 198 193q18 0 36 -2l16 81q9 30 53 30q50 0 50 -46q0 -10 -2 -31t-2 -31q2 -3 175 -3
q22 4 33 -14.5t9 -40.5q-2 -20 -13 -36q-13 -19 -31 -19h-183l-10 -109q209 7 209 -145q0 -192 -200 -192zM435 193q5 55 -20 55h-86l-10 -111h86q25 0 30 56zM227 359l9 111h-86q-24 0 -29 -55q-5 -56 20 -56h86z" />
    <glyph glyph-name="percent" unicode="%" horiz-adv-x="711" 
d="M692 550l-630 -576q-23 21 -83 87l630 576q27 -26 83 -87zM242 526q-5 -50 -38 -80.5t-83 -30.5q-49 0 -78 31t-24 80q5 50 38 80.5t83 30.5q49 0 78 -31t24 -80zM647 81q-4 -50 -37.5 -80.5t-83.5 -30.5q-49 0 -77 31t-24 80q4 50 37.5 81t83.5 31q49 0 77 -31.5
t24 -80.5z" />
    <glyph glyph-name="ampersand" unicode="&#x26;" horiz-adv-x="573" 
d="M503 124q-12 -128 -59 -168.5t-178 -40.5q-144 0 -204 41q-73 50 -73 186q0 20 4 76q1 18 4 64q4 54 20 64q6 5 62 16q37 7 40 37l15 169q1 17 25 50t40 43q26 17 54 26q16 5 59 5q151 0 151 -152q0 -22 -4 -69t-10 -99q-6 -48 -55.5 -86t-98.5 -38q-56 0 -51 56
q4 49 42 53q9 1 28 3q21 7 25 24q2 7 9 86q1 8 5 37q4 24 4 38q0 36 -55 36q-56 0 -58 -23l-39 -446q-2 -26 27.5 -54.5t56.5 -30.5q14 -1 35 -1q59 0 61 24l14 159q2 19 22 30q16 9 37 9q52 0 52 -52q0 5 -7 -72z" />
    <glyph glyph-name="quotesingle" unicode="'" horiz-adv-x="105" 
d="M102 507q-12 -37 -56 -37q-52 0 -52 52q0 -20 6 48l8 86q13 36 57 36q52 0 52 -54q0 9 -6 -56t-9 -75z" />
    <glyph glyph-name="parenleft" unicode="(" horiz-adv-x="362" 
d="M317 -141q-2 -22 -15.5 -38.5t-34.5 -16.5q-27 0 -71 17q-103 40 -156 175q-43 110 -43 248q0 29 3 60q5 54 27 136q17 65 22 77q42 110 116 189q91 98 190 98q44 0 39 -56q-2 -30 -16 -43q-15 -4 -36 -16q-70 -80 -95 -184q-12 -50 -25 -201q-9 -105 -9 -149
q0 -62 13 -126q17 -85 50 -114q12 -3 31 -13q12 -13 10 -43z" />
    <glyph glyph-name="parenright" unicode=")" horiz-adv-x="409" 
d="M-39 -141q-2 -21 8.5 -38t31.5 -17q26 0 74 17q124 44 204 208q65 133 77 275q1 12 1 44q0 110 -13 169q-24 111 -83 190q-73 97 -173 97q-44 0 -49 -56q-3 -30 9 -43q14 -4 33 -16q63 -92 63 -221q0 -33 -11 -164q-9 -107 -16 -146q-12 -65 -36 -130q-32 -85 -70 -113
q-12 -3 -33 -13q-14 -13 -17 -43z" />
    <glyph glyph-name="asterisk" unicode="*" horiz-adv-x="380" 
d="M330 661l-84 -77q18 -23 71 -78l-86 -79l-71 78q-25 -20 -85 -78l-72 79l85 78q-18 22 -72 78l87 79l71 -78q24 20 84 78z" />
    <glyph glyph-name="plus" unicode="+" horiz-adv-x="381" 
d="M328 248h-110q-5 -30 -10 -110h-112l10 110q-30 2 -110 0l9 112h111q4 30 9 110h112l-10 -110q15 -1 43 -1t68 1z" />
    <glyph glyph-name="comma" unicode="," horiz-adv-x="282" 
d="M220 -59q-8 -88 -9 -92q-12 -45 -59 -45q-50 0 -50 44q0 11 2 32t2 32q-110 17 -101 114q4 51 37 81t84 30q111 0 101 -115q-1 -18 -7 -81z" />
    <glyph glyph-name="hyphen" unicode="-" horiz-adv-x="508" 
d="M439 249h-443l9 110h444z" />
    <glyph glyph-name="hyphen" unicode="&#x2010;" horiz-adv-x="508" 
d="M439 249h-443l9 110h444z" />
    <glyph glyph-name="period" unicode="." horiz-adv-x="286" 
d="M222 26q-4 -50 -37.5 -80.5t-83.5 -30.5t-77.5 30.5t-23.5 80.5t37.5 80.5t83.5 30.5t77.5 -30.5t23.5 -80.5z" />
    <glyph glyph-name="slash" unicode="/" horiz-adv-x="318" 
d="M375 710l-326 -876q-23 21 -84 87l327 876q27 -26 83 -87z" />
    <glyph glyph-name="zero" unicode="0" horiz-adv-x="728" 
d="M650 116q-3 -30 -28 -74q-55 -96 -155 -119q-35 -8 -168 -8q-115 0 -168 8q-61 9 -106.5 70.5t-40.5 123.5l32 373q2 29 28 75q40 72 107 103q57 25 148 25h36q-1 0 20 -1h12q123 0 150 -5q79 -13 125 -74t41 -122zM539 112l33 383q2 25 -28 54t-55 31q-12 1 -131 1
q-13 0 -38 1t-38 1q-77 0 -114 -30.5t-44 -106.5q-2 -18 -4 -38q0 -22 9 -36q3 -5 33 -10q35 -6 42 -9q22 -10 20 -33l-18 -207q-2 -27 26 -54.5t56 -31.5q7 -1 77 -1h32q-3 0 26 1h18q24 0 60 31t38 54z" />
    <glyph glyph-name="one" unicode="1" horiz-adv-x="283" 
d="M192 -47q-3 -31 -53 -37q-8 -1 -62 -1q-53 0 -65 2q-46 8 -43 37l32 366q1 17 16 26q11 7 63 17q36 7 39 36l23 254q2 19 22 30q16 9 37 9q20 0 35 -9q19 -11 17 -29z" />
    <glyph glyph-name="two" unicode="2" horiz-adv-x="716" 
d="M644 41q-5 -61 -8 -73q-11 -53 -43 -53h-588q-33 0 -33 69q0 3 6 72q9 104 24 145q33 90 120 133q51 25 93 25h254q26 0 60 30.5t38 56.5q2 12 3 24q10 114 -138 114q-12 0 -35.5 -1.5t-35.5 -1.5q17 0 -28.5 1.5t-51.5 1.5q-38 0 -51 -5q-20 -8 -24 -41q-5 -40 -15 -52
q-13 -16 -47 -16q-50 0 -50 48q0 9 1 21q9 112 109 142q36 11 160 11q123 0 171 -8q73 -12 114 -77q38 -61 32 -137q-7 -82 -63 -144q-59 -64 -139 -72q-4 0 -13 -3t-14 -3h-144q-23 0 -60 -31.5t-39 -54.5l-11 -136h330q7 15 9 57.5t10 57.5q14 26 52 26q52 0 52 -54
q0 7 -7 -72z" />
    <glyph glyph-name="three" unicode="3" horiz-adv-x="714" 
d="M531 -54q-67 -31 -125 -31h-110q-123 0 -160 8q-102 22 -135 111q-19 51 -16 94q3 42 59 42q36 0 47 -24q4 -7 13 -59q4 -22 25 -39t45 -21q6 -1 78 -1q76 0 108 12q63 24 70 99q2 20 1 23q-7 28 -22 52q-5 8 -28.5 22t-32.5 14h-143q-39 0 -35 56q1 18 14.5 36.5
t30.5 18.5h143q26 0 60 30.5t38 56.5q2 11 3 24q7 77 -51 100q-28 11 -108 11q-69 0 -77 -1q-47 -6 -71 -44l-30 -64q-23 -35 -55 -35q-21 0 -37 11.5t-15 31.5q2 32 24 74q48 92 126 121q46 17 143 17q263 0 263 -196q0 -36 -13 -78q-14 -47 -36 -71q131 -52 131 -188
q0 -60 -34 -123q-36 -66 -88 -90z" />
    <glyph glyph-name="four" unicode="4" 
d="M667 304q-4 -45 -37 -53q-38 -1 -77 -3q-3 -2 -28 -287q-3 -36 -46 -44q-11 -2 -69 -2q-52 0 -65 2q-45 7 -42 37l26 294h-124q-15 0 -45.5 8.5t-42.5 16.5q-55 34 -78.5 74.5t-23.5 103.5q0 25 7 101l9 98q12 42 59 42q20 0 35 -9q19 -11 17 -29l-18 -208q-1 -1 5 -11
q-5 -19 26 -47.5t52 -28.5h242l26 294q2 19 22 30q16 9 37 9q20 0 35 -9q19 -11 17 -29l-26 -292q40 -3 79 -7q31 -7 28 -51z" />
    <glyph glyph-name="five" unicode="5" horiz-adv-x="694" 
d="M652 137q-4 -46 -33 -100q-36 -67 -88 -91q-67 -31 -125 -31h-110q-123 0 -160 8q-102 22 -135 111q-19 51 -16 94q3 42 59 42q36 0 47 -24q4 -7 13 -59q4 -22 25 -39t45 -21q6 -1 78 -1q76 0 108 12q63 24 70 99q2 20 1 23q-7 28 -22 52q-5 8 -28.5 22t-32.5 14h-313
q-13 0 -25 13t-11 26l32 366q1 14 18 26.5t32 12.5h428q47 0 42 -55q-2 -20 -13 -36q-13 -19 -31 -19h-371l-20 -223h346q87 0 142.5 -67.5t47.5 -154.5z" />
    <glyph glyph-name="six" unicode="6" horiz-adv-x="703" 
d="M652 137q-3 -35 -21.5 -77.5t-42.5 -66.5q-82 -80 -209 -80q-13 0 -40 1t-40 1q16 0 -27.5 -1t-48.5 -1q-29 0 -48 3q-96 15 -142 65t-46 146q0 11 6 91q1 18 4 64q4 55 20 64q9 7 63 15q36 5 38 37q9 152 72 221q68 73 218 73q182 0 168 -153q-3 -36 -14 -50
q-13 -19 -47 -19q-52 0 -52 43q0 7 2.5 20t2.5 20q0 20 -24 27q-4 1 -53 1q-45 0 -54 -1q-28 -3 -62 -30.5t-36 -54.5l-12 -136h235q87 0 142 -67t48 -155zM541 137q0 4 1 24q1 24 -29 55.5t-54 31.5h-241l-12 -135q-2 -27 26.5 -54.5t56.5 -31.5q7 -1 76 -1q74 0 107 13
q62 24 69 98z" />
    <glyph glyph-name="seven" unicode="7" horiz-adv-x="708" 
d="M648 304q-4 -45 -37 -53q-38 -1 -76 -3q-2 -1 -28 -287q-3 -36 -46 -44q-11 -2 -69 -2q-56 0 -63 1q-48 7 -45 38l26 291l-81 8q-29 6 -25 51q2 19 14 37t30 18h183l12 135q2 26 -27.5 55.5t-56 30.5t-100.5 1q12 0 -22 1.5t-38 1.5q-32 0 -46 -7q-19 -10 -21 -39
q-2 -36 -15 -52t-47 -16q-50 0 -50 48q0 10 1 21q9 102 90 135q44 18 151 18q109 0 147 -10q96 -25 129 -117q17 -48 15 -74l-11 -129q39 -3 78 -7q32 -8 28 -51z" />
    <glyph glyph-name="eight" unicode="8" horiz-adv-x="714" 
d="M588 -7q-82 -80 -209 -80q-13 0 -40 1t-40 1q-134 0 -168 8q-67 16 -107 69t-40 122q0 79 46.5 145t121.5 88q-27 41 -27 99q0 103 69.5 174.5t172.5 71.5q97 0 154 -62.5t49 -159.5q-2 -29 -16 -66t-32 -57q131 -52 131 -188q0 -43 -17 -89q-19 -49 -48 -77zM459 470
q4 47 -25 79t-76 32q-48 0 -82.5 -31.5t-38.5 -79.5q-4 -46 25.5 -78.5t75.5 -32.5q47 0 82 32t39 79zM541 137q6 72 -48 96q-33 15 -109 15q-75 0 -108 -13q-61 -24 -68 -98q-7 -73 50 -97q33 -14 107 -14t107 13q62 24 69 98z" />
    <glyph glyph-name="nine" unicode="9" horiz-adv-x="719" 
d="M659 218l-6 -71q-3 -38 -15 -72q-38 -110 -144 -143q-54 -17 -182 -17q-111 0 -151 16q-83 33 -74 139q6 71 62 71q51 0 51 -39q0 -7 -2 -21.5t-2 -21.5q0 -25 23 -32q2 -1 55 -1q-7 0 9 0q17 1 46 1q26 0 61.5 30.5t37.5 55.5l12 135h-235q-83 0 -137 57.5t-54 141.5
q0 128 88 191q76 54 210 54q19 0 56.5 -4t55.5 -4q46 -1 93 -53t50 -99q3 -60 1 -93q-1 -11 -3 -41q-1 -26 19 -34q8 -3 41 -6q26 -2 32 -12q11 -18 9 -47q-1 -13 -7 -81zM449 359l12 136q1 11 -9.5 30.5t-19.5 28.5q-23 21 -54 26q-7 1 -76 1q-74 0 -108 -13
q-61 -23 -68 -98q-2 -20 -2 -24q1 -24 30 -55.5t53 -31.5h242z" />
    <glyph glyph-name="colon" unicode=":" horiz-adv-x="278" 
d="M237 359q-5 -50 -38 -80.5t-83 -30.5t-77.5 30.5t-23.5 80.5t37 80.5t83 30.5t78.5 -30.5t23.5 -80.5zM208 26q-5 -50 -38 -80.5t-83 -30.5q-49 0 -78 31t-24 80q5 50 38 80.5t83 30.5q49 0 78 -31t24 -80z" />
    <glyph glyph-name="semicolon" unicode=";" horiz-adv-x="277" 
d="M242 359q-5 -50 -38 -80.5t-83 -30.5q-49 0 -78 31t-24 80q5 50 38 80.5t83 30.5q49 0 78 -31t24 -80zM205 -59q-8 -88 -9 -92q-12 -45 -59 -45q-50 0 -50 44q0 4 5 64q-111 17 -102 114q4 50 37 80.5t84 30.5q111 0 101 -115q-1 -18 -7 -81z" />
    <glyph glyph-name="less" unicode="&#x3c;" horiz-adv-x="300" 
d="M239 220q-28 -27 -80 -81l-84 78q-47 44 -75 85q59 58 184 166q25 -27 70 -81q-32 -29 -97 -85z" />
    <glyph glyph-name="equal" unicode="=" horiz-adv-x="477" 
d="M449 360h-444l10 110h443zM429 138h-443l10 110h443z" />
    <glyph glyph-name="greater" unicode="&#x3e;" horiz-adv-x="304" 
d="M-7 220q22 -27 65 -81l98 78q54 44 90 85q-49 58 -155 166q-30 -27 -84 -81q27 -29 82 -85z" />
    <glyph glyph-name="question" unicode="?" horiz-adv-x="570" 
d="M558 448q-6 -66 -63.5 -119t-123.5 -53h-98q-7 -33 -14 -42q-11 -16 -39 -16q-42 0 -42 41q0 85 21 99q12 8 37 8h42q33 0 64 25t34 57q3 30 -17 54t-50 27q-10 1 -89 1q-2 1 -20 2q-11 1 -34 0q-30 -1 -39 -4q-17 -7 -19 -34q-3 -32 -12 -42q-11 -13 -39 -13
q-46 0 -40 56q5 49 40 87.5t82 38.5h257q69 0 118.5 -52.5t43.5 -120.5zM298 76q-4 -42 -30.5 -66.5t-68.5 -24.5q-40 0 -63.5 25.5t-19.5 65.5q4 41 31 66t68 25t64 -25t19 -66z" />
    <glyph glyph-name="at" unicode="@" horiz-adv-x="814" 
d="M743 218q-26 -37 -51 -51q-17 -10 -59 -20t-35 -10q-8 0 -48.5 17.5t-47.5 23.5q-52 -52 -131 -52q-74 0 -120 50.5t-40 123.5q6 72 62 125t129 53q35 0 78.5 -23t59.5 -52q20 -38 23 -112q0 -13 15.5 -26t29.5 -13q25 0 41.5 21t18.5 47q1 12 1 22q0 99 -78 169t-178 70
q-125 0 -214 -88.5t-89 -213.5q0 -128 105 -205q65 -48 115 -48h352l-9 -111h-353q-30 0 -113 32q-99 38 -155 130q-53 86 -53 196q0 168 127.5 293.5t296.5 125.5q145 0 251 -102t106 -246q0 -72 -37 -126zM451 291q2 30 -14 53t-45 23q-24 0 -46 -21.5t-24 -45.5
q-2 -26 15.5 -44.5t43.5 -18.5q23 0 45.5 16t24.5 38z" />
    <glyph glyph-name="A" unicode="A" horiz-adv-x="723" 
d="M648 94q-6 -68 -13 -140q-4 -39 -58 -39q-17 0 -36 11.5t-18 27.5l24 270q0 6 -7.5 15t-13.5 9h-309l-26 -295q-3 -31 -52 -37q-8 -1 -62 -1q-53 0 -65 2q-46 8 -43 37l32 366q2 28 45 36q51 10 57 15q14 13 15 27q4 48 21 130q25 74 87.5 119t140.5 45q81 0 140 -52
t60 -131q0 -2 3.5 -11t2.5 -14l-11 -126q4 -3 11 -9q84 -19 84 -143q0 -5 -9 -112zM449 360l12 131q0 12 -10 33t-19 30q-14 14 -50 26q-3 1 -24 1q-37 0 -75 -27q-41 -29 -44 -64l-12 -130h222z" />
    <glyph glyph-name="B" unicode="B" horiz-adv-x="714" 
d="M652 137q-7 -81 -64 -143q-59 -65 -138 -73q-4 0 -13 -3t-14 -3h-418q-12 0 -24.5 13.5t-11.5 25.5l62 699q0 6 12 19.5t18 14.5q35 5 166 5q146 0 197 -8q78 -12 119 -89q33 -61 27 -125q-2 -26 -17 -65.5t-31 -57.5q68 -27 102 -82t28 -128zM459 470q0 4 1 24
q1 24 -29 55.5t-54 31.5h-241l-19 -222h234q40 0 72 35t36 76zM541 137q0 5 1 24q1 23 -29 55t-54 32h-241l-20 -222h235q40 0 72 35t36 76z" />
    <glyph glyph-name="C" unicode="C" horiz-adv-x="694" 
d="M651 128q0 -7 -14 -46t-19 -48q-50 -88 -154 -111q-37 -8 -161 -8q-163 0 -225 33q-89 47 -89 193q0 21 4 77q1 18 4 64q4 55 20 64q9 7 63 15q36 5 38 37q11 174 98 242q67 52 207 52q98 0 137 -14q78 -28 111 -124q14 -41 11 -74q-4 -43 -59 -43q-37 0 -48 23
q-4 8 -13 60q-8 45 -70 60q-4 1 -79 1q-73 0 -79 -1q-28 -5 -59 -33q-34 -29 -36 -56l-34 -379q-2 -26 27.5 -55t56.5 -30q23 -1 77 -1q70 0 78 1q47 6 71 43q28 62 30 64q22 36 54 36q21 0 37.5 -11t14.5 -31z" />
    <glyph glyph-name="D" unicode="D" horiz-adv-x="713" 
d="M677 296q-2 -18 -188 -253q-101 -128 -122 -128h-362q-12 0 -24.5 13.5t-11.5 25.5l62 699q1 14 18 26.5t32 12.5h340q33 0 69 -58q11 -17 44 -76q24 -33 121 -192q25 -41 22 -70zM555 302q-59 100 -173 279h-246l-16 -182q-1 -10 9 -27q3 -5 34 -10q35 -7 41 -9
q22 -10 20 -33l-26 -294h140z" />
    <glyph glyph-name="E" unicode="E" horiz-adv-x="681" 
d="M637 -30q-2 -20 -13 -36q-13 -19 -31 -19h-417q-15 0 -45 8.5t-43 16.5q-56 34 -79 74t-23 104q0 30 6 100l5 65q4 44 13 55q10 15 49 21q30 4 38 9q18 8 21 30q4 33 7 66q5 38 14 64q33 94 109 133q63 33 171 33q14 0 42.5 -1t42.5 -1h154q43 0 38 -55q-2 -19 -14 -36
q-14 -20 -31 -20h-317q-24 0 -59 -33t-37 -57l-11 -132h405q18 0 27.5 -18.5t7.5 -36.5q-2 -19 -14 -36q-14 -20 -31 -20h-405l-12 -136l5 -10q-4 -19 27.5 -47.5t51.5 -28.5h314q19 0 27.5 -18.5t6.5 -37.5z" />
    <glyph glyph-name="F" unicode="F" horiz-adv-x="667" 
d="M667 304q-2 -19 -14 -36q-14 -20 -31 -20h-405l-26 -295q-3 -31 -52 -37q-8 -1 -62 -1q-53 0 -65 2q-46 8 -43 37l32 366q2 28 45 36q52 10 57 15q14 14 15 27q3 33 7 66q5 37 14 64q33 94 109 133q63 33 171 33q14 0 42.5 -1t42.5 -1h154q43 0 38 -55q-2 -19 -14 -36
q-14 -20 -31 -20h-317q-24 0 -59 -33t-37 -57l-11 -132h405q18 0 27.5 -18.5t7.5 -36.5z" />
    <glyph glyph-name="G" unicode="G" horiz-adv-x="708" 
d="M648 94q-4 -50 -7 -97q-13 -82 -48 -82h-417q-15 0 -45 8.5t-43 16.5q-56 34 -79 74t-23 104q0 30 6 100l5 65q4 44 13 55q10 15 49 21q30 4 38 9q18 8 21 30q4 33 7 66q5 38 14 64q33 94 109 133q63 33 171 33q14 0 42.5 -1t42.5 -1h154q43 0 38 -55q-2 -19 -14 -36
q-14 -20 -31 -20h-317q-25 0 -59 -32.5t-36 -57.5l-34 -379l5 -10q-4 -19 27.5 -47.5t51.5 -28.5h242l17 198q1 6 -7.5 15t-14.5 9h-158q-20 0 -29 19q-8 16 -6 37q5 57 75 57q9 0 26 -1t26 -1q103 0 141 -21q55 -30 55 -121q0 -31 -8 -123z" />
    <glyph glyph-name="H" unicode="H" 
d="M636 -47q-2 -18 -21 -28t-38 -10t-35 10q-19 11 -17 29l25 294h-333l-26 -295q-3 -31 -52 -37q-8 -1 -62 -1q-53 0 -65 2q-46 8 -43 37l62 699q2 19 22 30q16 9 37 9q19 0 34 -9q19 -11 17 -29l-25 -294h444l26 293q3 39 59 39q20 0 35 -9q19 -11 17 -29z" />
    <glyph glyph-name="I" unicode="I" horiz-adv-x="588" 
d="M530 -30q-2 -18 -14 -35q-14 -20 -30 -20h-481q-19 0 -28 19q-8 16 -6 36t13 36q13 20 31 20h182l49 555h-182q-18 0 -28 20q-9 17 -7 36q4 55 52 55h465q47 0 42 -55q-2 -19 -13 -36q-13 -20 -31 -20h-187l-16 -183q-2 -24 28 -34q2 -1 51 -10q28 -8 26 -33l-26 -292
l84 -8q30 -7 26 -51z" />
    <glyph glyph-name="J" unicode="J" 
d="M659 218q-9 -102 -24 -145q-32 -90 -120 -133q-51 -25 -92 -25h-418q-19 0 -28 19q-8 16 -6 36t13 36q13 20 31 20h314q24 0 60.5 32t38.5 55l47 540q2 19 22 30q16 9 37 9q20 0 35 -9q19 -11 17 -29l-22 -256q-3 -31 40 -38q50 -8 53 -14q8 -13 8 -48q0 -11 -6 -80z" />
    <glyph glyph-name="K" unicode="K" horiz-adv-x="720" 
d="M645 52q-8 -88 -9 -92q-12 -45 -59 -45q-19 0 -35 10q-19 11 -17 29l18 203q2 26 -26 58.5t-54 32.5h-246l-26 -295q-3 -31 -52 -37q-8 -1 -62 -1q-53 0 -65 2q-46 8 -43 37l62 699q2 19 22 30q16 9 37 9q19 0 34 -9q19 -11 17 -29l-25 -294h234l119 147q21 27 75 95
q73 90 103 90q21 0 35.5 -18.5t12.5 -40.5q-1 -16 -91 -128l-118 -147q165 -40 165 -210q0 -30 -6 -96z" />
    <glyph glyph-name="L" unicode="L" horiz-adv-x="651" 
d="M637 -30q-2 -20 -13 -36q-13 -19 -31 -19h-588q-12 0 -24.5 13.5t-11.5 25.5l32 366q1 17 16 26q11 7 63 17q36 7 39 36l23 254q2 19 22 30q16 9 37 9q20 0 35 -9q19 -11 17 -29l-55 -628h405q19 0 27.5 -18.5t6.5 -37.5z" />
    <glyph glyph-name="M" unicode="M" horiz-adv-x="951" 
d="M858 -47q-2 -18 -20.5 -28t-38.5 -10t-35 9q-19 11 -17 30l47 536q2 25 -25.5 55.5t-53.5 34.5q-6 1 -24 1q-21 0 -24 -1q-24 -8 -53 -26q-5 -2 -23.5 -29.5t-18.5 -33.5l-47 -538q-2 -18 -21 -28t-38 -10t-35 10q-19 11 -17 29l47 536q2 26 -26 56.5t-54 33.5
q-9 1 -55 1h-43q-37 -4 -39 -23l-52 -605q-3 -31 -53 -37q-8 -1 -62 -1q-53 0 -65 2q-46 8 -43 37l32 366q1 17 16 26q11 7 63 17q36 7 39 36l15 169q1 16 25 49t40 44q30 21 62 27q22 4 69 4q69 0 104 -10q49 -14 92 -60q81 70 175 70q90 0 151 -59.5t53 -148.5z" />
    <glyph glyph-name="N" unicode="N" horiz-adv-x="729" 
d="M636 -47q-2 -18 -21 -28t-38 -10t-35 10q-19 11 -17 29l47 536q2 26 -26 57t-54 33q-13 1 -110 1q13 0 -19 1.5t-35 1.5q-82 0 -84 -26l-53 -605q-3 -31 -52 -37q-8 -1 -62 -1q-53 0 -65 2q-46 8 -43 37l32 366q1 17 16 26q11 7 63 17q36 7 39 36l15 169q1 16 25 49
t40 44q31 22 55 26q28 5 132 5q121 0 150 -7q90 -22 129 -112q4 -10 11 -44.5t6 -44.5z" />
    <glyph glyph-name="O" unicode="O" horiz-adv-x="728" 
d="M651 124q-3 -36 -33 -90q-49 -88 -154 -111q-37 -8 -161 -8q-163 0 -225 33q-89 47 -89 193q0 21 4 77q1 18 4 64q4 55 20 64q9 7 63 15q36 5 38 37q11 174 98 242q67 52 207 52q98 0 137 -14q78 -28 111 -124q14 -39 11 -70zM539 116l33 375q1 11 -9.5 32.5t-19.5 30.5
q-21 21 -50 26q-6 1 -80 1h-74q-34 -5 -64 -34q-34 -32 -36 -57l-33 -377q-2 -27 26 -54.5t56 -31.5q7 -1 78 -1h35q-2 0 26 1h17q24 0 58.5 32.5t36.5 56.5z" />
    <glyph glyph-name="P" unicode="P" horiz-adv-x="675" 
d="M681 470q-7 -82 -63 -144q-59 -64 -139 -72q-4 0 -13 -3t-14 -3h-235l-26 -295q-3 -31 -52 -37q-8 -1 -62 -1q-53 0 -65 2q-46 8 -43 37l32 366q1 17 16 26q11 7 63 17q36 7 39 36l15 169q1 16 25 49t40 44q37 25 88 30q11 1 95 1q105 0 153 -8q73 -12 114 -77
q38 -61 32 -137zM570 470q7 81 -62 102q-29 9 -128 9q-73 0 -69 1q-64 -4 -66 -25l-18 -198h242q26 0 59 30t39 57q2 6 3 24z" />
    <glyph glyph-name="Q" unicode="Q" horiz-adv-x="729" 
d="M637 -32q-2 -22 -19 -37.5t-39 -15.5q-38 0 -50 30q-46 -23 -117 -28q-28 -2 -113 -2q16 0 -27.5 -1t-48.5 -1q-29 0 -48 3q-96 15 -142 65t-46 146q0 11 6 91q1 18 4 64q4 55 20 64q9 7 63 15q36 5 38 37q11 174 98 242q67 52 207 52q88 0 135 -16q82 -28 110 -111
q17 -50 15 -74l-33 -375q-3 -32 -38 -91q9 -7 17.5 -26t7.5 -31zM541 145l31 350q1 10 -9.5 30t-19.5 29q-21 21 -54 26q-7 1 -76 1h-33q4 0 -25 -1h-18q-23 0 -59.5 -31.5t-38.5 -54.5l-33 -381q-2 -27 26 -54.5t56 -31.5q7 -1 77 -1h53q29 1 51 12l-75 120
q-64 104 -63 120q2 22 20 40.5t39 18.5q31 0 89 -91q6 -10 62 -101z" />
    <glyph glyph-name="R" unicode="R" horiz-adv-x="718" 
d="M637 -32q-2 -22 -19 -37.5t-39 -15.5q-27 0 -31 5q-42 54 -108 161l-103 167h-120l-26 -295q-3 -31 -52 -37q-8 -1 -62 -1q-53 0 -65 2q-46 8 -43 37l62 699q1 14 18 26.5t32 12.5h402q87 0 143 -56t56 -143t-58 -158.5t-144 -80.5q-2 0 -7 -4q167 -254 164 -282z
M570 470q4 41 -22.5 76t-66.5 35h-345l-19 -222h345q40 0 72 35t36 76z" />
    <glyph glyph-name="S" unicode="S" horiz-adv-x="708" 
d="M652 137q-7 -81 -64 -143q-59 -65 -138 -73q-4 0 -13 -3t-14 -3h-329q-9 0 -30 10q-94 44 -85 143q6 69 62 69q51 0 51 -44q0 -7 -3 -20.5t-3 -20.5q0 -30 67 -30q19 0 43 2l24 2q56 1 128 7q75 21 82 104q1 12 1 23q-7 27 -22 52q-5 8 -28.5 22t-32.5 14h-143
q-83 0 -137 58t-54 141q0 101 68.5 173t168.5 72h314q59 0 93 -47t29 -106q-3 -36 -14 -50q-13 -19 -47 -19q-49 0 -49 45q0 7 1 19.5t1 19.5q0 27 -24 27h-328q-25 0 -60.5 -31t-37.5 -56q-4 -38 -5 -47q5 -29 29 -57q26 -31 54 -31h255q87 0 142 -67.5t48 -154.5z" />
    <glyph glyph-name="T" unicode="T" horiz-adv-x="622" 
d="M696 637q-2 -18 -14.5 -37t-29.5 -19h-295l-16 -183q-2 -24 28 -34q2 -1 51 -10q28 -8 26 -33l-32 -368q-3 -31 -53 -37q-8 -1 -62 -1q-52 0 -65 2q-45 7 -42 37l55 627h-183q-18 0 -28 20q-9 17 -7 36q4 55 52 55h573q47 0 42 -55z" />
    <glyph glyph-name="U" unicode="U" 
d="M643 38q-3 -36 -53 -79.5t-86 -43.5h-499q-12 0 -24.5 13.5t-11.5 25.5l32 366q1 17 16 26q11 7 63 17q36 7 39 36l23 254q2 19 22 30q16 9 37 9q20 0 35 -9q19 -11 17 -29l-55 -628h309q6 0 16 9t10 15l53 603q2 19 22 30q16 9 37 9q20 0 35 -9q19 -11 17 -29z" />
    <glyph glyph-name="V" unicode="V" horiz-adv-x="717" 
d="M663 264q-1 -9 -100 -136q-158 -202 -184 -213q-17 -7 -79 -6l-50 1q-27 1 -35 10q-54 62 -142 208q-77 127 -76 137l34 388q2 19 22 30q16 9 37 9q18 0 35 -9q18 -12 17 -29l-31 -356q-1 -7 55 -92l93 -143q92 109 184 228l32 362q3 32 53 39h62q51 0 64 -2
q46 -7 43 -36z" />
    <glyph glyph-name="W" unicode="W" horiz-adv-x="949" 
d="M866 38q-3 -36 -53 -79.5t-86 -43.5h-722q-12 0 -24.5 13.5t-11.5 25.5l32 366q1 17 16 26q11 7 63 17q36 7 39 36l23 254q2 19 22 30q16 9 37 9q20 0 35 -9q19 -11 17 -29l-55 -628h222l55 627q2 19 22 30q16 9 37 9q20 0 35 -9q19 -11 17 -29l-55 -628h198q6 0 16 9
t11 15l52 603q2 19 22 30q16 9 37 9q20 0 35 -9q19 -11 17 -29z" />
    <glyph glyph-name="X" unicode="X" horiz-adv-x="724" 
d="M648 94q-6 -68 -13 -140q-4 -39 -58 -39q-17 0 -36 11.5t-18 27.5l24 270q0 6 -7.5 15t-13.5 9h-309l-26 -295q-3 -31 -52 -37q-8 -1 -62 -1q-53 0 -65 2q-46 8 -43 37l32 366q1 17 16 26q11 7 63 17q36 7 39 36l23 254q2 19 22 30q16 9 37 9q20 0 35 -9q19 -11 17 -29
l-26 -294h222l26 293q2 19 22 30q16 9 37 9q20 0 36 -9q20 -11 18 -29l-26 -296q4 -3 11 -9q84 -19 84 -143q0 -5 -9 -112z" />
    <glyph glyph-name="Y" unicode="Y" 
d="M659 218q-9 -102 -24 -145q-32 -90 -120 -133q-51 -25 -92 -25h-329q-9 0 -30 10q-94 44 -85 143q6 69 62 69q51 0 51 -44q0 -7 -3 -20.5t-3 -20.5q0 -30 67 -30q19 0 43 2l24 2q27 0 109 1q26 0 61.5 30.5t37.5 55.5l11 135h-234q-15 0 -45.5 8.5t-42.5 16.5
q-55 34 -78.5 74.5t-23.5 103.5q0 25 7 101l9 98q12 42 59 42q20 0 35 -9q19 -11 17 -29l-18 -208q-1 -1 5 -11q-5 -19 26 -47.5t52 -28.5h242l26 294q3 39 59 39q20 0 35 -9q19 -11 17 -29l-22 -256q-3 -31 40 -38q50 -8 53 -14q8 -13 8 -48q0 -11 -6 -80z" />
    <glyph glyph-name="Z" unicode="Z" horiz-adv-x="725" 
d="M646 68q-5 -50 -34 -89t-76 -54q-10 -3 -32 -10h-538l21 242q7 75 79 138.5t148 63.5h322q25 0 31 55q5 41 9 143q0 7 -7 14.5t-15 8.5t-141 1q19 0 -32 1.5t-56 1.5q-39 -1 -54 -4q-24 -5 -29 -39q-6 -44 -14 -54q-14 -17 -47 -17q-50 0 -50 48q0 9 1 21q13 156 217 156
q12 0 37 -1.5t37 -1.5q133 0 167 -8q94 -22 98 -115q1 -19 -7 -99q-3 -25 -10 -98q-4 -39 -51 -81.5t-87 -42.5h-225q-23 0 -60 -31.5t-39 -54.5l-12 -136h310q21 0 29 31q1 5 8 51q11 29 52 29q51 0 51 -49q0 -10 -1 -20z" />
    <glyph glyph-name="bracketleft" unicode="[" horiz-adv-x="362" 
d="M367 693h-110l-68 -777q25 -2 52 -2q28 0 58 2l-10 -112h-332l87 999h332z" />
    <glyph glyph-name="backslash" unicode="\" horiz-adv-x="375" 
d="M35 710l172 -876q27 21 99 87l-173 876q-32 -26 -98 -87z" />
    <glyph glyph-name="bracketright" unicode="]" horiz-adv-x="394" 
d="M35 693h110l-68 -777q-26 -2 -54 -2q-27 0 -56 2l-10 -112h332l87 999h-332z" />
    <glyph glyph-name="asciicircum" unicode="^" horiz-adv-x="315" 
d="M78 742q-24 25 -73 72q64 70 85 91q49 50 92 83q53 -54 151 -170q-29 -27 -87 -76q-12 15 -39 44.5t-39 44.5z" />
    <glyph glyph-name="underscore" unicode="_" horiz-adv-x="615" 
d="M550 -85h-554l9 110h555z" />
    <glyph glyph-name="grave" unicode="`" horiz-adv-x="177" 
d="M178 833l6 -61q0 -52 -52 -52q-45 0 -58 39q0 1 -7 71l-6 62q0 50 52 50q46 0 58 -41q0 -2 7 -68z" />
    <glyph glyph-name="a" unicode="a" horiz-adv-x="614" 
d="M546 81q-5 -62 -7 -91q-13 -75 -47 -75h-388q-10 0 -30 10q-85 42 -85 124q0 20 1 32q10 121 111 157q28 10 32 10h202q4 14 7 45q2 22 2 29q0 37 -21 37h-158q-39 0 -35 56q4 57 75 57q9 0 26.5 -1t26.5 -1q77 0 93 -3q41 -8 72 -43.5t33 -77.5q1 -6 -3.5 -23.5
t-4.5 -23.5q0 -30 21 -42q9 -5 41 -10q29 -4 36.5 -12.5t7.5 -47.5q0 -15 -8 -106zM318 26l10 111h-190q-32 0 -37 -56q-5 -55 20 -55h197z" />
    <glyph glyph-name="b" unicode="b" horiz-adv-x="606" 
d="M546 193q-10 -114 -51 -178q-51 -77 -155 -93q-45 -7 -181 -7q-128 0 -139 1q-54 5 -51 38l62 699q2 19 22 30q16 9 37 9q19 0 34 -9q19 -11 17 -29l-16 -184h235q32 0 70 -17q120 -54 120 -186q0 -27 -4 -74zM435 193q1 21 5 79q2 25 -27.5 56t-54.5 31h-242l-6 -72
q-1 -8 10 -26q3 -6 34 -11q36 -6 40 -8q22 -10 20 -33l-16 -183h131q27 0 58 29.5t39 57.5q4 15 9 80z" />
    <glyph glyph-name="c" unicode="c" horiz-adv-x="602" 
d="M544 109q-3 -32 -23 -67q-49 -84 -129 -111q-47 -16 -139 -16q-122 0 -183 43q-74 51 -74 167q0 24 1 38q3 40 9 55q11 28 42 28q53 0 63 14q1 2 26 66q8 21 20 40q29 46 85 75t112 29q85 0 147 -53q65 -57 58 -141q-4 -43 -56 -43q-33 0 -42 13q-7 27 -32 77
q-26 36 -83 36q-75 0 -104 -64q-14 -30 -20 -104q-3 -36 -3 -53q0 -112 100 -112q62 0 95 47q15 30 42 69q13 10 40 10q51 0 48 -43z" />
    <glyph glyph-name="d" unicode="d" horiz-adv-x="619" 
d="M525 -47q-1 -9 -16.5 -23t-25.5 -14h-39l-54 -1h-61q-131 0 -173 6q-93 13 -132 69q-36 50 -36 147q0 33 2 56q8 93 33 146q38 81 128 114q47 17 73 17h235l16 183q2 19 22 30q16 9 37 9q20 0 35 -9q19 -11 17 -29zM443 286l6 73h-234q-29 0 -65.5 -29t-39.5 -56
q-5 -35 -9 -81q-1 -19 -6 -80q-2 -24 28.5 -55.5t54.5 -31.5h131l16 184q2 28 32 35q13 3 54 9q30 8 32 32z" />
    <glyph glyph-name="e" unicode="e" horiz-adv-x="600" 
d="M558 218q-7 -81 -47 -81h-291q-3 -2 -4 -13q-3 -30 25 -64t58 -34h166q18 0 28 -20q8 -16 6 -36q-4 -52 -43 -54q-18 -1 -136 -1q-171 0 -236 32q-89 44 -89 173q0 21 2 43q4 42 9 55q11 28 42 28q46 0 60 12q10 9 27 55q6 18 22 53q24 44 88 75q59 29 113 29
q98 0 151 -62q50 -58 50 -158q0 -20 -1 -32zM449 249l2 20q1 10 -9.5 32t-18.5 30q-15 15 -51 27q-3 1 -24 1q-42 0 -79 -31t-40 -60l-2 -19h222z" />
    <glyph glyph-name="f" unicode="f" horiz-adv-x="487" 
d="M454 415q-2 -20 -13 -36q-13 -20 -31 -20h-182q0 -11 -5.5 -31t-5.5 -31q0 -44 56 -48q33 -3 41 -15t8 -47q0 -16 -8 -106q-5 -52 -8 -82q-5 -47 -8 -54q-7 -18 -37 -29q-8 -1 -73 -1q-52 0 -65 2q-45 7 -42 37l35 402l-81 8q-29 6 -25 51q4 44 36 52q38 1 76 3
q12 146 75 191q43 31 159 31q9 0 26 1t26 1q70 0 65 -57q-2 -19 -13 -36q-13 -20 -31 -20h-158q-6 0 -16 -8.5t-11 -14.5l-8 -88h184q17 0 26.5 -18.5t7.5 -36.5z" />
    <glyph glyph-name="g" unicode="g" horiz-adv-x="618" 
d="M539 -105q-2 -24 -28 -74q-46 -89 -143 -115q-45 -12 -154 -12q-11 0 -32.5 -1t-32.5 -1q-36 0 -51 10q-19 13 -16 47q3 32 19.5 44t50.5 13h66q26 0 61.5 30.5t37.5 55.5l2 24h-124q-41 0 -88 25q-101 54 -101 182q0 24 4 71q15 175 99 232q67 45 244 45q102 0 127 -5
q34 -7 68 -45.5t31 -72.5zM465 312q3 33 -21 44q-16 8 -52 7l-41 -2q-32 -1 -16 -1q-91 0 -117 -6q-70 -16 -89 -80q-2 -6 -8 -80q-1 -9 -2 -29l-4 -51q-2 -25 28 -56t55 -31h130l16 184q3 30 44 37q53 9 59 14q15 12 18 50z" />
    <glyph glyph-name="h" unicode="h" horiz-adv-x="613" 
d="M539 111q-6 -74 -14 -154q-4 -42 -59 -42q-19 0 -35 10q-19 11 -17 29l28 318q2 25 -28 56t-56 31h-241q0 -11 -5.5 -31t-5.5 -31q0 -44 56 -48q33 -3 41 -15t8 -47q0 -16 -8 -106q-5 -52 -8 -82q-5 -47 -8 -54q-7 -18 -37 -29q-8 -1 -73 -1q-53 0 -65 2q-46 8 -43 37
l62 699q2 19 22 30q16 9 37 9q19 0 34 -9q19 -11 17 -29l-16 -184h235q31 0 88 -25q101 -44 101 -191q0 -9 -10 -143z" />
    <glyph glyph-name="i" unicode="i" horiz-adv-x="283" 
d="M251 637q-5 -56 -60 -56q-56 0 -51 56q5 55 61 55q55 0 50 -55zM192 -47q-3 -31 -53 -37q-8 -1 -62 -1q-72 0 -80 3q-24 9 -24 60q0 12 8 103l7 80q6 68 19 74q4 2 64 15q37 8 39 37l12 144q1 18 21 28.5t38 10.5q20 0 35 -9q19 -11 17 -29z" />
    <glyph glyph-name="j" unicode="j" horiz-adv-x="408" 
d="M282 637q-5 -56 -60 -56q-56 0 -51 56q5 55 60 55q56 0 51 -55zM347 107q-14 -154 -68 -221q-67 -82 -223 -82q-54 0 -65 4q-29 10 -25 51q3 33 16 43q21 8 73 28q13 5 36.5 32t24.5 40l37 429q2 18 21 28.5t38 10.5q20 0 35 -9q19 -11 17 -29l-13 -146q-3 -30 40 -37
q50 -8 54 -14q8 -13 8 -48q0 -13 -6 -80z" />
    <glyph glyph-name="k" unicode="k" horiz-adv-x="599" 
d="M529 0q-4 -46 -13 -62q-13 -23 -50 -23q-51 0 -51 50q0 10 4 43q4 28 2 42q-4 30 -29 58.5t-53 28.5h-132l-16 -184q-3 -31 -52 -37q-8 -1 -62 -1q-53 0 -65 2q-46 8 -43 37l62 699q2 19 22 30q16 9 37 9q19 0 34 -9q19 -11 17 -29l-35 -405h201q30 35 73 87q1 2 68 87
q37 47 68 47q21 0 35.5 -18.5t13.5 -40.5q-1 -16 -69 -101q-28 -35 -70 -86q105 -57 105 -182q0 -19 -2 -42z" />
    <glyph glyph-name="l" unicode="l" horiz-adv-x="367" 
d="M304 -30q-3 -34 -17 -43q-19 -12 -154 -12q-112 0 -132 4q-31 6 -31 45q0 -9 11 117l7 80q6 68 19 74q3 2 64 15q36 8 39 37l32 366q2 19 22 30q16 9 37 9q20 0 35 -9q19 -11 17 -29l-55 -625q39 -4 79 -7q31 -8 27 -52z" />
    <glyph glyph-name="m" unicode="m" horiz-adv-x="951" 
d="M882 111q-6 -74 -14 -154q-4 -42 -59 -42q-19 0 -35 10q-19 11 -17 29l28 318q2 26 -28 55.5t-56 30.5q-4 0 -9 1h-11q-35 0 -69 -22t-43 -54q-3 -1 -7 -10l-27 -320q-1 -16 -23 -28q-18 -10 -36 -10q-20 0 -35 9q-19 11 -17 30l27 318q2 25 -29 55.5t-54 30.5h-10
q-10 1 -18 1h-25q-51 0 -42 1q-36 -3 -38 -24l-34 -383q-3 -31 -53 -37q-8 -1 -61 -1q-72 0 -80 3q-25 9 -25 60q0 8 8 103q6 72 8 80q6 57 10 64q7 13 50 20q32 5 45.5 15.5t15.5 39.5q3 36 7 47q33 81 87 107q34 16 104 16q74 0 110 -11q49 -15 89 -59q81 70 175 70
q42 0 100 -25q101 -44 101 -191q0 -9 -10 -143z" />
    <glyph glyph-name="n" unicode="n" horiz-adv-x="729" 
d="M659 111q-3 -41 -13 -154q-4 -42 -59 -42q-20 0 -35 9q-19 11 -17 30l27 318q3 30 -33 60q-27 23 -53 26q-10 0 -60 1h-46l-20 2q-10 1 -36 1q-77 0 -79 -26l-34 -383q-3 -31 -53 -37q-8 -1 -61 -1q-72 0 -80 3q-25 9 -25 60q0 8 8 103q6 72 8 80q6 57 10 64q7 13 50 20
q32 5 45.5 15.5t15.5 39.5q3 36 7 47q24 60 57 88q41 35 97 35h92q144 0 194 -21q99 -41 106 -180q-2 -26 -13 -158z" />
    <glyph glyph-name="o" unicode="o" horiz-adv-x="725" 
d="M667 193q-15 -181 -115 -239q-67 -39 -243 -39q-149 0 -210 26q-103 44 -103 184q0 25 1 38q4 50 12 62q12 19 53 23q35 4 47.5 15t20.5 46q13 61 83 111q67 49 131 49h14q24 1 23 1h32q128 0 188 -45q68 -53 68 -177q0 -31 -2 -55zM555 193q3 36 3 55q0 72 -44 95
q-30 16 -111 16q-103 0 -137.5 -31.5t-43.5 -134.5q-3 -35 -3 -56q0 -72 44 -95q30 -16 111 -16q103 0 137.5 31.5t43.5 135.5z" />
    <glyph glyph-name="p" unicode="p" horiz-adv-x="608" 
d="M565 194q-8 -96 -27 -139q-36 -81 -134 -122q-41 -17 -73 -17h-235l-16 -184q-2 -18 -20 -28t-38 -10q-19 0 -35 10q-20 12 -18 29l54 614q1 17 25 49.5t40 43.5q32 22 54 26q27 5 129 5q165 0 225 -38q72 -45 72 -177q0 -26 -3 -62zM454 194q3 33 3 49q0 79 -43 101
q-32 16 -145 16q-97 0 -118 -5q-16 -4 -20 -43q-3 -32 8 -50q2 -4 33 -10q35 -6 41 -9q23 -10 21 -33l-16 -183h130q27 0 59 30t39 57q1 4 8 80z" />
    <glyph glyph-name="q" unicode="q" horiz-adv-x="619" 
d="M525 -268q-2 -17 -21 -27.5t-38 -10.5q-20 0 -35 9q-19 11 -17 30l16 183h-235q-41 0 -88 25q-101 54 -101 182q0 24 4 71q15 175 99 232q66 45 243 45q104 0 128 -5q34 -7 68 -46t31 -72zM464 312q3 33 -20 44q-16 8 -52 7l-38 -2q-35 -1 -19 -1q-91 0 -117 -6
q-70 -16 -89 -80q-2 -6 -8 -80q-1 -9 -2 -29l-4 -51q-2 -25 27.5 -56t54.5 -31h131l16 184q3 30 44 37q53 9 59 14q14 11 17 50z" />
    <glyph glyph-name="r" unicode="r" horiz-adv-x="470" 
d="M464 415q-2 -19 -13 -36q-13 -20 -31 -20h-159q-5 0 -15.5 -9t-10.5 -14l-34 -383q-3 -31 -53 -37q-8 -1 -61 -1q-72 0 -80 3q-25 9 -25 60q0 8 8 103q6 72 8 80q6 57 10 64q7 13 50 20q32 5 45.5 15.5t15.5 39.5q2 37 7 47q43 90 93 111q29 12 127 12q9 0 26 1t26 1
q71 0 66 -57z" />
    <glyph glyph-name="s" unicode="s" horiz-adv-x="605" 
d="M435 -75q-27 -10 -32 -10h-351q-19 0 -28 19q-8 16 -6 36t13 36q13 20 31 20h232q26 0 30 55q5 56 -20 56h-181q-10 0 -30 10q-85 42 -85 124q0 8 2 33q5 65 45 113q43 53 105 53h336q47 0 42 -55q-2 -19 -13 -36q-13 -20 -31 -20h-344q-24 0 -29 -55q-5 -56 19 -56h292
q10 0 30 -10q85 -42 85 -123q0 -149 -112 -190z" />
    <glyph glyph-name="t" unicode="t" horiz-adv-x="573" 
d="M526 -30q-3 -34 -24 -47q-17 -10 -53 -10q-11 0 -32 1t-32 1q-110 0 -152 12q-94 27 -124 115q-16 48 -14 75l21 239l-80 8q-30 6 -26 51q4 44 37 52l76 3q4 32 18 176q4 46 60 46q20 0 35 -9q19 -11 17 -29l-16 -184h183q18 0 27 -20q9 -16 7 -35q-2 -20 -13 -36
q-13 -20 -31 -20h-182q0 -11 -5.5 -31t-5.5 -31q0 -44 56 -49q28 -3 38.5 -11t10.5 -35q0 -11 -3 -44q-3 -28 -1 -45q5 -52 44 -71q19 -10 81 -14q58 -4 72 -13t11 -45z" />
    <glyph glyph-name="u" unicode="u" horiz-adv-x="615" 
d="M542 38q-1 -16 -26 -50.5t-39 -41.5q-17 -12 -54 -27q-26 -4 -129 -4q-145 0 -207 31q-91 45 -91 177q0 28 1 40q5 61 19 72q7 6 61 16q39 8 42 36l13 144q2 18 21 28.5t38 10.5q20 0 35 -9q19 -11 17 -29l-28 -320q-2 -26 27.5 -55t56.5 -30q23 -1 53 -1q52 0 42 -1
q36 3 38 25l33 381q2 19 22 30q16 9 37 9q20 0 35 -9q19 -11 17 -29z" />
    <glyph glyph-name="v" unicode="v" horiz-adv-x="603" 
d="M569 348v-36q-1 -32 -8.5 -47t-131.5 -168q-26 -34 -94 -120q-50 -62 -82 -62q-30 0 -85 86q-16 27 -59 96q-1 2 -55 80q-34 49 -47 87q1 14 7 84q4 45 8 82q12 40 58 40q20 0 35 -9q19 -11 17 -29l-12 -134q0 -6 103 -165q20 21 64 74q53 63 54 69l13 155q3 31 53 38
q7 1 62 1q71 0 86 -5q20 -7 20 -39q0 7 -2 -14q-2 -24 -4 -64z" />
    <glyph glyph-name="w" unicode="w" horiz-adv-x="952" 
d="M896 274q-11 -134 -21 -173q-21 -84 -84 -135t-149 -51q-42 0 -86 19q-47 20 -72 51q-59 -48 -118 -62q-34 -8 -113 -8q-122 0 -183 43q-74 51 -74 167q0 26 1 38q5 62 19 72q6 5 61 16q39 8 42 36l13 144q2 18 21 28.5t38 10.5q20 0 35 -9q19 -11 17 -29l-28 -320
q-2 -26 27.5 -54.5t56.5 -30.5q13 -1 20 -1q37 0 68.5 21t42.5 56q3 0 7 10l28 318q2 19 22 30q16 9 37 9q20 0 35 -9q19 -11 17 -29l-28 -320q-2 -26 27.5 -54.5t56.5 -30.5q13 -1 20 -1q38 0 69 20.5t42 56.5q4 0 8 10l28 318q3 39 59 39q55 0 51 -42z" />
    <glyph glyph-name="x" unicode="x" horiz-adv-x="725" 
d="M653 39l-8 -82q-12 -42 -58 -42q-18 0 -35 10q-21 12 -19 29l14 158q0 7 -7.5 16t-13.5 9h-309l-16 -184q-3 -31 -53 -37q-8 -1 -61 -1q-72 0 -80 3q-25 9 -25 60q0 17 8 103q5 54 8 80q8 69 19 74q6 3 64 15q35 7 38 37l13 144q2 18 21 28.5t38 10.5q20 0 35 -9
q19 -11 17 -29l-16 -184h222l16 183q2 19 22 30q16 9 37 9q20 0 36 -9q20 -11 18 -29l-16 -185q99 -51 98 -133q0 -4 -7 -75z" />
    <glyph glyph-name="y" unicode="y" horiz-adv-x="614" 
d="M553 53q-4 -55 -15 -158q-33 -136 -135 -178q-56 -23 -189 -23q-11 0 -32.5 -1t-32.5 -1q-36 0 -51 10q-19 13 -16 47q3 32 19.5 44t50.5 13h66q26 0 60.5 30.5t37.5 55.5l3 24h-124q-31 0 -88 25q-101 44 -101 192q0 3 11 142q3 41 13 154q4 42 60 42q20 0 35 -9
q19 -11 17 -29l-28 -319q1 -2 5 -11q-4 -19 27 -47.5t51 -28.5h131l36 405q3 39 59 39q20 0 35 -9q19 -11 17 -29l-13 -145q-2 -24 19 -33q9 -4 43 -8q26 -3 32 -11q11 -15 10 -29q-6 -62 -13 -154z" />
    <glyph glyph-name="z" unicode="z" horiz-adv-x="602" 
d="M536 -30q-2 -18 -14 -35q-14 -20 -30 -20h-477q-35 0 -35 51l3 34q16 181 159 230q53 18 73 18h210q24 0 29 56q5 55 -20 55h-380q-39 0 -35 56q4 55 52 55h373q17 0 38 -10q85 -41 85 -123q0 -149 -113 -190q-27 -10 -32 -10h-113q-25 0 -60.5 -31.5t-38.5 -55.5l-3 -24
h295q18 0 27 -18.5t7 -37.5z" />
    <glyph glyph-name="braceleft" unicode="{" horiz-adv-x="420" 
d="M380 -141q-2 -21 -15.5 -38t-34.5 -17q-30 0 -71 17q-107 45 -156 175q-30 81 -42 217q-1 14 -25 24q-27 12 -28 13q-11 15 -8 54q3 44 18 53q4 3 29 12q19 7 26 19q9 34 39 129q35 105 120 194q89 93 186 93q43 0 39 -56q-2 -32 -25 -44q-31 -17 -39 -26
q-46 -54 -92 -214q-12 -42 -62 -92q-47 -46 -91 -67q40 -26 78 -72q44 -52 48 -91q2 -22 8 -78q13 -106 55 -146q13 -4 33 -16q12 -13 10 -43z" />
    <glyph glyph-name="bar" unicode="|" horiz-adv-x="209" 
d="M104 -196h-147l87 999h147z" />
    <glyph glyph-name="braceright" unicode="}" horiz-adv-x="420" 
d="M-39 -141q-2 -21 8.5 -38t31.5 -17q30 0 74 17q115 45 187 175q44 79 79 217q4 15 28 23q28 10 32 14q14 15 17 54q4 44 -8 53q-3 3 -27 12q-18 7 -23 19q-3 36 -16 129q-19 109 -86 194q-73 93 -170 93q-44 0 -49 -56q-3 -32 17 -44q30 -18 35 -26q35 -53 54 -214
q5 -40 47 -91q39 -48 78 -68q-45 -27 -89 -71q-53 -52 -64 -92q-19 -67 -23 -81q-15 -48 -30 -77q-22 -43 -50 -66q-14 -4 -36 -16q-14 -13 -17 -43z" />
    <glyph glyph-name="asciitilde" unicode="~" horiz-adv-x="497" 
d="M125 779q-2 -23 14 -37.5t39 -14.5q25 0 49 25q47 50 52 53q12 -9 45 -53q19 -25 46 -25q34 0 81 50q19 22 71 78q14 15 16 38t-14 36.5t-39 13.5q-24 0 -56 -29q-1 -1 -45 -49q-12 12 -46 55q-18 23 -46 23q-27 0 -90 -61q-34 -32 -46 -47q-29 -34 -31 -56z" />
    <glyph glyph-name="exclamdown" unicode="&#xa1;" horiz-adv-x="282" 
d="M226 347q4 41 -28.5 69t-74.5 28q-43 0 -79 -28t-40 -70l-29 -333q-4 -44 28 -72q29 -26 74 -26q40 0 78.5 29t41.5 68zM246 581q5 50 -23 80.5t-78 30.5q-49 0 -83 -31t-38 -80q-4 -50 24 -80.5t78 -30.5t82.5 30.5t37.5 80.5z" />
    <glyph glyph-name="dieresis" unicode="&#xa8;" horiz-adv-x="457" 
d="M305 839q-3 -32 -24 -51.5t-53 -19.5t-50 19.5t-15 51.5t24 51.5t53 19.5t50 -19.5t15 -51.5zM489 839q-3 -32 -24 -51.5t-53 -19.5t-50 19.5t-15 51.5t24 51.5t53 19.5t50 -19.5t15 -51.5z" />
    <glyph glyph-name="copyright" unicode="&#xa9;" horiz-adv-x="821" 
d="M355 -85q-155 0 -256 99t-101 254q0 170 127.5 297t297.5 127q155 0 255.5 -99t100.5 -254q0 -176 -124 -300t-300 -124zM668 328q0 110 -72.5 181.5t-182.5 71.5q-124 0 -213.5 -89t-89.5 -213q0 -110 72.5 -181.5t182.5 -71.5q124 0 213.5 89t89.5 213zM493 183
q-55 -46 -119 -46q-69 0 -113.5 49t-38.5 118q6 68 59 117t122 49q62 0 111 -46q-82 -76 -86 -76q-5 0 -17 5.5t-17 5.5q-23 0 -41 -16t-20 -39t13 -39.5t38 -16.5q5 0 18 5.5t18 5.5q4 0 73 -76z" />
    <glyph glyph-name="guillemotleft" unicode="&#xab;" horiz-adv-x="550" 
d="M239 220q-28 -27 -80 -81l-84 78q-47 44 -75 85q59 58 184 166q25 -27 70 -81q-32 -29 -97 -85zM489 220q-28 -27 -80 -81l-84 78q-47 44 -75 85q59 58 184 166q25 -27 70 -81q-32 -29 -97 -85z" />
    <glyph glyph-name="registered" unicode="&#xae;" horiz-adv-x="821" 
d="M355 -85q-155 0 -256 99t-101 254q0 170 127.5 297t297.5 127q155 0 255.5 -99t100.5 -254q0 -176 -124 -300t-300 -124zM668 328q0 110 -72.5 181.5t-182.5 71.5q-124 0 -213.5 -89t-89.5 -213q0 -110 72.5 -181.5t182.5 -71.5q124 0 213.5 89t89.5 213zM559 343
q-3 -40 -30 -72q-7 -9 -27 -32q-2 -14 39 -101h-125q-12 31 -40 92h-48q-8 -43 -8 -92h-112l29 332h212q47 0 80.5 -39.5t29.5 -87.5zM466 343q1 9 -8 22t-17 12h-101l-6 -69h94q13 0 25 11t13 24z" />
    <glyph glyph-name="overscore" unicode="&#xaf;" horiz-adv-x="615" 
d="M560 25h-555l-9 -110h554z" />
    <glyph glyph-name="overscore" unicode="&#x2c9;" horiz-adv-x="615" 
d="M560 25h-555l-9 -110h554z" />
    <glyph glyph-name="degree" unicode="&#xb0;" horiz-adv-x="183" 
d="M4 699q3 40 33.5 68t70.5 28t65.5 -28t22.5 -68t-34 -68t-71 -28t-65 28t-22 68zM71 702q-3 -32 29 -32t35 32q3 31 -29 31t-35 -31z" />
    <glyph glyph-name="twosuperior" unicode="&#xb2;" horiz-adv-x="262" 
d="M193 603q-3 -38 -15 -38h-176q-12 0 -9 42q5 65 44 84q16 8 27 8h77q8 0 17.5 9t11.5 17q1 3 1 7q2 27 -25 33h-76q-6 -2 -8 -13q-3 -14 -6.5 -17t-12.5 -3q-16 0 -15 20q2 34 33 43q14 4 48 4q39 0 49 -2q51 -11 46 -65q-2 -25 -18.5 -43.5t-41.5 -21.5q-1 0 -4 -1
t-4 -1h-43q-7 0 -18.5 -9.5t-11.5 -16.5l-4 -40h99q4 24 4 26q5 16 18 16q14 0 15 -14z" />
    <glyph glyph-name="threesuperior" unicode="&#xb3;" horiz-adv-x="186" 
d="M195 633q-4 -42 -37 -57q-19 -9 -70 -9q-39 0 -48 2q-31 7 -41 34q-6 17 -5 28q1 12 18 12q13 0 18 -23q3 -16 21 -20h24q50 0 53 33q1 6 0 7q-2 9 -6 16q-13 11 -18 11h-43q-12 0 -11 16q2 17 13 17h44q10 0 20 11.5t10 21.5q3 34 -48 34q-20 0 -23 -1q-14 -2 -26 -22.5
t-21 -20.5q-16 0 -15 13q1 11 7 23q20 41 81 41q84 0 78 -67q-2 -22 -14 -37q43 -17 39 -63z" />
    <glyph glyph-name="onesuperior" unicode="&#xb9;" horiz-adv-x="75" 
d="M71 578q-1 -11 -34 -11q-34 0 -33 12l10 109q0 6 5 8q2 2 19 5q11 2 11 11l7 76q1 12 18 12q16 0 15 -12z" />
    <glyph glyph-name="guillemotright" unicode="&#xbb;" horiz-adv-x="554" 
d="M243 220q22 -27 65 -81l98 78q54 44 90 85q-49 58 -155 166q-30 -27 -84 -81q27 -29 82 -85zM-7 220q22 -27 65 -81l98 78q54 44 90 85q-49 58 -155 166q-30 -27 -84 -81q27 -29 82 -85z" />
    <glyph glyph-name="onequarter" unicode="&#xbc;" horiz-adv-x="386" 
d="M305 710l-303 -616l-24 87l303 616zM106 569q-1 -12 -34 -12q-34 0 -33 12l10 109q0 9 23 13q12 2 12 11l7 76q1 12 18 12q16 0 15 -11zM321 194q-2 -17 -34 -17q0 -3 -8 -86q-1 -14 -34 -14q-34 0 -33 12l8 88h-37q-14 0 -26 7q-31 19 -31 54q0 50 4 61t18 11
q17 0 16 -11l-5 -63l1 -3q-1 -6 8.5 -14.5t15.5 -8.5h72l8 88q1 12 18 12q16 0 15 -11l-7 -88l21 -2q11 -3 10 -15z" />
    <glyph glyph-name="onehalf" unicode="&#xbd;" horiz-adv-x="390" 
d="M305 710l-303 -616l-24 87l303 616zM106 569q-1 -12 -34 -12q-34 0 -33 12l10 109q0 9 23 13q12 2 12 11l7 76q1 12 18 12q16 0 15 -11zM316 115q-4 -38 -15 -38h-177q-12 0 -8 42q3 33 7 44q7 19 25.5 33.5t38.5 14.5h76q8 0 18 9t12 17q0 4 1 7q2 27 -25 33h-76
q-6 -2 -8 -13q-3 -14 -7 -17t-12 -3q-17 0 -15 20q3 34 33 43q10 3 48 3q37 0 51 -2q22 -3 34 -22t10 -42q-2 -25 -19 -43.5t-42 -21.5l-3 -1q-3 -1 -5 -1h-43q-7 0 -18 -9.5t-12 -16.5l-3 -40h99q6 42 21 42t16 -14q0 -3 -2 -24z" />
    <glyph glyph-name="threequarters" unicode="&#xbe;" horiz-adv-x="386" 
d="M305 710l-303 -616l-24 87l303 616zM160 623q-4 -42 -37 -57q-20 -9 -70 -9q-39 0 -48 2q-22 5 -35 22.5t-11 39.5q1 12 18 12q13 0 18 -23q3 -16 21 -20h23q51 0 54 33v7q-2 9 -6 16q-13 11 -19 11h-43q-11 0 -10 16q2 17 13 17h43q8 0 18 9t12 17q0 4 1 7q3 34 -48 34
q-20 0 -23 -1q-14 -2 -26.5 -22.5t-20.5 -20.5q-17 0 -15 13q0 10 7 23q21 41 80 41q85 0 79 -67q-2 -22 -14 -37q43 -17 39 -63zM321 194q-2 -17 -34 -17q0 -3 -8 -86q-1 -14 -34 -14q-34 0 -33 12l8 88h-37q-14 0 -26 7q-31 19 -31 54q0 50 4 61t18 11q17 0 16 -11l-5 -63
l1 -3q-1 -6 8.5 -14.5t15.5 -8.5h72l8 88q1 12 18 12q16 0 15 -11l-7 -88l21 -2q11 -3 10 -15z" />
    <glyph glyph-name="questiondown" unicode="&#xbf;" horiz-adv-x="575" 
d="M-13 158q6 66 63.5 119t123.5 53h99q6 31 14 42q12 16 39 16q41 0 41 -41q0 -81 -18 -97q-16 -10 -40 -10h-42q-32 0 -64 -25t-34 -57q-2 -29 18 -53.5t49 -27.5q9 -1 90 -1q-13 0 19 -1q16 -1 35 -1q25 1 35 3q19 4 23 32q5 36 12 45q10 13 38 13t37 -15q6 -11 4 -41
q-3 -46 -40 -86t-82 -40h-257q-69 0 -119 52.5t-44 120.5zM247 530q4 41 31 66t68 25t64 -25t19 -66t-31 -66t-68 -25q-40 0 -63.5 25.5t-19.5 65.5z" />
    <glyph glyph-name="Agrave" unicode="&#xc0;" horiz-adv-x="723" 
d="M637 94q-6 -68 -13 -140q-4 -39 -58 -39q-17 0 -36 11.5t-18 27.5l24 270q0 6 -7.5 15t-13.5 9h-309l-26 -295q-3 -31 -52 -37q-8 -1 -62 -1q-53 0 -65 2q-46 8 -43 37l32 366q2 28 45 36q51 10 57 15q14 13 15 27q4 44 21 130q25 74 87.5 119t140.5 45q81 0 140 -52
t60 -131q0 -2 3.5 -11t2.5 -14l-11 -126q4 -3 11 -9q84 -19 84 -143q0 -5 -9 -112zM438 360l12 131q0 12 -10 33t-19 30q-14 14 -50 26q-3 1 -24 1q-37 0 -75 -27q-41 -29 -44 -64l-12 -130h222zM423 833l6 -61q0 -52 -51 -52q-46 0 -58 39q-2 5 -8 71l-6 62q0 50 52 50
q46 0 58 -41q0 -2 7 -68z" />
    <glyph glyph-name="Aacute" unicode="&#xc1;" horiz-adv-x="723" 
d="M637 94q-6 -68 -13 -140q-4 -39 -58 -39q-17 0 -36 11.5t-18 27.5l24 270q0 6 -7.5 15t-13.5 9h-309l-26 -295q-3 -31 -52 -37q-8 -1 -62 -1q-53 0 -65 2q-46 8 -43 37l32 366q2 28 45 36q51 10 57 15q14 13 15 27q4 44 21 130q25 74 87.5 119t140.5 45q81 0 140 -52
t60 -131q0 -2 3.5 -11t2.5 -14l-11 -126q4 -3 11 -9q84 -19 84 -143q0 -5 -9 -112zM438 360l12 131q0 12 -10 33t-19 30q-14 14 -50 26q-3 1 -24 1q-37 0 -75 -27q-41 -29 -44 -64l-12 -130h222zM295 756q0 -36 43 -36q46 0 65 39q5 9 21.5 74t16.5 74q0 35 -44 35
q-46 0 -66 -41q-1 -4 -18.5 -70.5t-17.5 -74.5z" />
    <glyph glyph-name="Acircumflex" unicode="&#xc2;" horiz-adv-x="723" 
d="M635 94q-6 -68 -13 -140q-4 -39 -58 -39q-17 0 -36 11.5t-18 27.5l24 270q0 6 -7.5 15t-13.5 9h-309l-26 -295q-3 -31 -52 -37q-8 -1 -62 -1q-52 0 -65 2q-45 7 -42 37l32 366q2 28 44 36q52 10 57 15q14 13 15 27q4 44 21 130q25 74 87.5 119t140.5 45q81 0 140 -52
t60 -131q0 -2 3.5 -11t2.5 -14l-11 -126q4 -3 11 -9q84 -19 84 -143q0 -5 -9 -112zM436 360l12 131q0 12 -10 33t-19 30q-14 14 -50 26q-3 1 -24 1q-37 0 -75 -27q-41 -29 -44 -64l-12 -130h222zM275 742q-25 25 -74 72l85 91q50 51 92 83q54 -54 151 -170q-29 -27 -87 -76
q-12 15 -39 44.5t-39 44.5z" />
    <glyph glyph-name="Atilde" unicode="&#xc3;" horiz-adv-x="723" 
d="M637 94q-6 -68 -13 -140q-4 -39 -58 -39q-17 0 -36 11.5t-18 27.5l24 270q0 6 -7.5 15t-13.5 9h-309l-26 -295q-3 -31 -52 -37q-8 -1 -62 -1q-53 0 -65 2q-46 8 -43 37l32 366q2 28 45 36q51 10 57 15q14 13 15 27q4 48 21 130q25 74 87.5 119t140.5 45q81 0 140 -52
t60 -131q0 -2 3.5 -11t2.5 -14l-11 -126q4 -3 11 -9q84 -19 84 -143q0 -5 -9 -112zM438 360l12 131q0 12 -10 33t-19 30q-14 14 -50 26q-3 1 -24 1q-37 0 -75 -27q-41 -29 -44 -64l-12 -130h222zM161 779q-2 -23 14 -37.5t39 -14.5q26 0 49 25q46 50 51 53q14 -11 46 -53
q19 -25 46 -25q31 0 80 50q22 23 71 78q13 12 16 38q2 23 -14 36.5t-39 13.5q-24 0 -55 -29q-22 -25 -45 -49q-10 10 -46 55q-18 23 -46 23q-27 0 -90 -61q-34 -33 -46 -47q-29 -34 -31 -56z" />
    <glyph glyph-name="Adieresis" unicode="&#xc4;" horiz-adv-x="723" 
d="M639 94q-6 -79 -14 -140q-5 -39 -58 -39q-18 0 -36 11t-17 28l23 270q1 6 -6.5 15t-13.5 9h-309l-26 -295q-3 -31 -53 -37q-8 -1 -61 -1t-66 2q-45 7 -42 37l32 366q2 28 44 36q52 10 57 15q14 13 15 27q4 43 22 130q23 74 86.5 119t141.5 45q81 0 139.5 -51.5
t59.5 -131.5q0 -3 3.5 -12.5t3.5 -12.5l-11 -126q3 -3 11 -9q83 -19 83 -143q0 -14 -8 -112zM439 360l12 131q1 10 -9.5 32.5t-18.5 30.5q-13 13 -50 26q-5 1 -25 1q-36 0 -75 -27q-41 -30 -44 -64l-11 -130h221zM354 839q-3 -32 -24.5 -51.5t-53.5 -19.5q-31 0 -49.5 20
t-15.5 51q3 32 24.5 51.5t53.5 19.5q31 0 49.5 -20t15.5 -51zM538 839q-3 -32 -24.5 -51.5t-53.5 -19.5q-31 0 -49.5 20t-15.5 51q3 32 24.5 51.5t53.5 19.5q31 0 49.5 -20t15.5 -51z" />
    <glyph glyph-name="Aring" unicode="&#xc5;" horiz-adv-x="723" 
d="M640 94q-5 -60 -14 -140q-4 -39 -57 -39q-18 0 -35 10q-20 12 -19 29l23 270q1 6 -6.5 15t-13.5 9h-309l-26 -295q-3 -31 -52 -37q-8 -1 -62 -1q-53 0 -65 2q-46 8 -43 37l32 366q2 28 45 36q51 10 57 15q14 13 15 27q4 48 21 130q23 74 86.5 119t141.5 45q81 0 139 -50
q59 -53 61 -133q0 -3 3 -12.5t3 -12.5l-11 -126q4 -3 11 -9q84 -19 84 -143q0 -9 -9 -112zM441 360l11 131q1 11 -9 32.5t-19 30.5q-14 14 -50 26q-5 1 -25 1q-36 0 -74 -27q-41 -29 -44 -64l-12 -130h222zM285 799q3 33 28.5 56.5t58.5 23.5t54.5 -23.5t18.5 -56.5
t-28.5 -56.5t-58.5 -23.5t-54.5 23.5t-18.5 56.5zM341 801q-3 -27 24 -27t29 27t-24 27q-27 0 -29 -27z" />
    <glyph glyph-name="AE" unicode="&#xc6;" horiz-adv-x="875" 
d="M815 -30q-3 -35 -17 -43q-20 -12 -154 -12q-125 0 -147 4q-33 6 -67 47t-31 73l19 209h-201l-26 -295q-3 -31 -52 -37q-8 -1 -62 -1q-53 0 -65 2q-46 8 -43 37l32 366q2 28 45 36q52 9 57 15q17 19 36 161q16 70 94 118q68 42 129 42h470q46 0 41 -55q-2 -20 -13 -36
q-13 -19 -31 -19h-272l-19 -223h272q18 0 27 -18t7 -37q-2 -20 -13 -36q-13 -20 -31 -20h-271l-18 -199q0 -6 8 -14.5t14 -8.5h248q18 0 27 -18.5t7 -37.5zM427 360l19 221h-101q-29 0 -66 -29.5t-40 -57.5l-12 -134h200z" />
    <glyph glyph-name="Egrave" unicode="&#xc8;" horiz-adv-x="681" 
d="M626 -30q-2 -20 -13 -36q-13 -19 -31 -19h-417q-14 0 -45 9t-43 16q-54 33 -78 74t-24 104q0 8 7 100q2 32 4 63q4 47 13 57q10 15 49 21q30 4 38 9q18 8 21 30q4 33 7 66q5 38 14 64q33 94 109 133q63 33 171 33q14 0 42.5 -1t42.5 -1h154q43 0 38 -55q-2 -19 -13 -36
q-13 -20 -31 -20h-318q-24 0 -59 -33t-37 -57l-11 -132h405q18 0 27.5 -18.5t7.5 -36.5q-2 -19 -14 -36q-14 -20 -31 -20h-405l-12 -136l6 -10q-5 -19 26 -47.5t52 -28.5h314q19 0 27.5 -18.5t6.5 -37.5zM423 833l6 -61q0 -52 -51 -52q-46 0 -58 39q-2 5 -8 71l-6 62
q0 50 52 50q46 0 58 -41q0 -2 7 -68z" />
    <glyph glyph-name="Eacute" unicode="&#xc9;" horiz-adv-x="681" 
d="M626 -30q-2 -20 -13 -36q-13 -19 -31 -19h-417q-14 0 -45 9t-43 16q-54 33 -78 74t-24 104q0 8 7 100q2 32 4 63q4 47 13 57q10 15 49 21q30 4 38 9q18 8 21 30q4 33 7 66q5 38 14 64q33 94 109 133q63 33 171 33q14 0 42.5 -1t42.5 -1h154q43 0 38 -55q-2 -19 -13 -36
q-13 -20 -31 -20h-318q-24 0 -59 -33t-37 -57l-11 -132h405q18 0 27.5 -18.5t7.5 -36.5q-2 -19 -14 -36q-14 -20 -31 -20h-405l-12 -136l6 -10q-5 -19 26 -47.5t52 -28.5h314q19 0 27.5 -18.5t6.5 -37.5zM295 756q0 -36 43 -36q46 0 65 39q5 9 21.5 74t16.5 74q0 35 -44 35
q-46 0 -66 -41q-1 -4 -18.5 -70.5t-17.5 -74.5z" />
    <glyph glyph-name="Ecircumflex" unicode="&#xca;" horiz-adv-x="681" 
d="M624 -30q-2 -20 -13 -36q-13 -19 -31 -19h-417q-14 0 -45 9t-43 16q-54 33 -78 74t-24 104q0 8 7 100q2 32 4 63q4 47 13 57q10 15 49 21q30 4 38 9q18 8 21 30q4 33 7 66q5 38 14 64q33 94 109 133q63 33 171 33q14 0 42.5 -1t42.5 -1h154q43 0 38 -55q-2 -19 -13 -36
q-13 -20 -31 -20h-318q-24 0 -59 -33t-37 -57l-11 -132h405q18 0 27.5 -18.5t7.5 -36.5q-2 -19 -14 -36q-14 -20 -31 -20h-405l-12 -136l6 -10q-5 -19 26 -47.5t52 -28.5h314q19 0 27.5 -18.5t6.5 -37.5zM275 742q-25 25 -74 72l85 91q50 51 92 83q54 -54 151 -170
q-29 -27 -87 -76q-12 15 -39 44.5t-39 44.5z" />
    <glyph glyph-name="Edieresis" unicode="&#xcb;" horiz-adv-x="681" 
d="M628 -30q-1 -17 -14.5 -36t-29.5 -19h-418q-15 0 -45 8.5t-43 16.5q-102 62 -102 178q0 8 7 100q2 32 5 63q4 46 13 59t48 19q30 4 39 8q17 9 20 31l8 66q5 38 14 64q34 95 108 134q63 32 172 32q14 0 42.5 -1t42.5 -1h154q42 0 37 -55q-2 -19 -13 -36q-13 -20 -31 -20
h-318q-24 0 -58.5 -32.5t-36.5 -57.5l-12 -132h406q17 0 26.5 -18.5t7.5 -36.5q-2 -20 -13 -36q-13 -20 -31 -20h-405l-12 -136l5 -10q-4 -19 27.5 -47.5t51.5 -28.5h313q18 0 28 -20q9 -16 7 -36zM354 839q-3 -32 -24.5 -51.5t-53.5 -19.5q-31 0 -49.5 20t-15.5 51
q3 32 24.5 51.5t53.5 19.5q31 0 49.5 -20t15.5 -51zM538 839q-3 -32 -24.5 -51.5t-53.5 -19.5q-31 0 -49.5 20t-15.5 51q3 32 24.5 51.5t53.5 19.5q31 0 49.5 -20t15.5 -51z" />
    <glyph glyph-name="Igrave" unicode="&#xcc;" horiz-adv-x="588" 
d="M519 -30q-1 -17 -14.5 -36t-29.5 -19h-481q-19 0 -28 19q-8 16 -6 36t13 36q13 20 31 20h183l48 555h-182q-18 0 -28 20q-9 17 -7 36q4 55 52 55h466q46 0 41 -55q-2 -19 -13 -36q-13 -20 -31 -20h-187l-16 -183q-2 -24 28 -34q2 -1 51 -10q28 -8 26 -33l-26 -292l84 -8
q30 -7 26 -51zM353 833l6 -61q0 -52 -51 -52q-46 0 -58 39q-2 5 -8 71l-6 62q0 50 52 50q46 0 58 -41q0 -2 7 -68z" />
    <glyph glyph-name="Iacute" unicode="&#xcd;" horiz-adv-x="588" 
d="M519 -30q-1 -17 -14.5 -36t-29.5 -19h-481q-19 0 -28 19q-8 16 -6 36t13 36q13 20 31 20h183l48 555h-182q-18 0 -28 20q-9 17 -7 36q4 55 52 55h466q46 0 41 -55q-2 -19 -13 -36q-13 -20 -31 -20h-187l-16 -183q-2 -24 28 -34q2 -1 51 -10q28 -8 26 -33l-26 -292l84 -8
q30 -7 26 -51zM255 756q0 -36 43 -36q46 0 65 39q5 9 21.5 74t16.5 74q0 35 -44 35q-46 0 -66 -41q-1 -4 -18.5 -70.5t-17.5 -74.5z" />
    <glyph glyph-name="Icircumflex" unicode="&#xce;" horiz-adv-x="588" 
d="M517 -30q-1 -17 -14.5 -36t-29.5 -19h-481q-19 0 -28 19q-8 16 -6 36t13 36q13 20 31 20h183l48 555h-182q-18 0 -28 20q-9 17 -7 36q4 55 52 55h466q46 0 41 -55q-2 -19 -13 -36q-13 -20 -31 -20h-187l-16 -183q-2 -24 28 -34q2 -1 51 -10q28 -8 26 -33l-26 -292l85 -8
q29 -7 25 -51zM224 742q-25 25 -74 72l85 91q50 51 92 83q54 -54 151 -170q-29 -27 -87 -76q-12 15 -39 44.5t-39 44.5z" />
    <glyph glyph-name="Idieresis" unicode="&#xcf;" horiz-adv-x="588" 
d="M520 -30q-2 -20 -13 -36q-13 -19 -31 -19h-480q-39 0 -35 55q1 19 14 37.5t30 18.5h183l49 555h-183q-19 0 -28 20q-8 16 -6 36q4 55 51 55h466q47 0 42 -55q-2 -18 -14.5 -37t-29.5 -19h-187l-16 -183q-2 -24 28 -34q2 -1 50 -10q28 -8 26 -33l-25 -292l84 -8
q29 -7 25 -51zM294 839q-3 -32 -24.5 -51.5t-53.5 -19.5q-31 0 -49.5 20t-15.5 51q3 32 24.5 51.5t53.5 19.5q31 0 49.5 -20t15.5 -51zM478 839q-3 -32 -24.5 -51.5t-53.5 -19.5q-31 0 -49.5 20t-15.5 51q3 32 24.5 51.5t53.5 19.5q31 0 49.5 -20t15.5 -51z" />
    <glyph glyph-name="Ntilde" unicode="&#xd1;" 
d="M625 -47q-2 -18 -21 -28t-38 -10t-35 10q-19 11 -17 29l47 536q2 26 -26 57t-54 33q-13 1 -110 1q13 0 -19 1.5t-35 1.5q-82 0 -84 -26l-52 -605q-3 -31 -53 -37q-8 -1 -62 -1q-53 0 -65 2q-46 8 -43 37l32 366q1 17 16 26q11 7 63 17q36 7 39 36l15 169q1 16 25 49
t40 44q31 22 55 26q28 5 132 5q121 0 150 -7q90 -22 129 -112q4 -10 11 -44.5t6 -44.5zM161 779q-2 -23 14 -37.5t39 -14.5q26 0 49 25q46 50 51 53q14 -11 46 -53q19 -25 46 -25q31 0 80 50q22 23 71 78q13 12 16 38q2 23 -14 36.5t-39 13.5q-24 0 -55 -29q-22 -25 -45 -49
q-10 10 -46 55q-18 23 -46 23q-27 0 -90 -61q-34 -33 -46 -47q-29 -34 -31 -56z" />
    <glyph glyph-name="Ograve" unicode="&#xd2;" horiz-adv-x="728" 
d="M640 124q-3 -36 -33 -90q-49 -88 -154 -111q-37 -8 -161 -8q-163 0 -225 33q-89 47 -89 193q0 21 4 77q1 18 4 64q4 55 20 64q9 7 63 15q36 5 38 37q11 174 98 242q67 52 207 52q98 0 137 -14q78 -28 111 -124q14 -39 11 -70zM528 116l33 375q1 10 -9.5 32.5t-18.5 30.5
q-20 20 -51 26q-5 1 -80 1h-74q-34 -5 -64 -34q-34 -32 -36 -57l-33 -377q-2 -27 26.5 -54.5t56.5 -31.5q7 -1 77 -1h35q-2 0 26 1h17q24 0 58.5 32.5t36.5 56.5zM423 833l6 -61q0 -52 -51 -52q-46 0 -58 39q-2 5 -8 71l-6 62q0 50 52 50q46 0 59 -41q0 -7 6 -68z" />
    <glyph glyph-name="Oacute" unicode="&#xd3;" horiz-adv-x="728" 
d="M640 124q-3 -36 -33 -90q-49 -88 -154 -111q-37 -8 -161 -8q-163 0 -225 33q-89 47 -89 193q0 21 4 77q1 18 4 64q4 55 20 64q9 7 63 15q36 5 38 37q11 174 98 242q67 52 207 52q98 0 137 -14q78 -28 111 -124q14 -39 11 -70zM528 116l33 375q1 10 -9.5 32.5t-18.5 30.5
q-20 20 -51 26q-5 1 -80 1h-74q-34 -5 -64 -34q-34 -32 -36 -57l-33 -377q-2 -27 26.5 -54.5t56.5 -31.5q7 -1 77 -1h35q-2 0 26 1h17q24 0 58.5 32.5t36.5 56.5zM295 756q0 -36 44 -36q45 0 64 39q5 9 21.5 74t16.5 74q0 35 -44 35q-46 0 -66 -41q-1 -4 -18.5 -70.5
t-17.5 -74.5z" />
    <glyph glyph-name="Ocircumflex" unicode="&#xd4;" horiz-adv-x="728" 
d="M638 124q-3 -36 -33 -90q-49 -88 -154 -111q-37 -8 -161 -8q-163 0 -225 33q-89 47 -89 193q0 21 4 77q1 18 4 64q4 55 20 64q9 7 63 15q36 5 38 37q11 174 98 242q67 52 207 52q98 0 137 -14q78 -28 111 -124q14 -39 11 -70zM526 116l33 375q1 10 -9.5 32.5t-18.5 30.5
q-20 20 -51 26q-5 1 -80 1h-74q-34 -5 -64 -34q-34 -32 -36 -57l-33 -377q-2 -27 26.5 -54.5t56.5 -31.5q7 -1 77 -1h35q-2 0 26 1h17q24 0 58.5 32.5t36.5 56.5zM275 742q-25 25 -74 72l85 91q50 51 92 83q54 -54 151 -170q-29 -27 -87 -76q-10 13 -38 45l-40 44z" />
    <glyph glyph-name="Otilde" unicode="&#xd5;" horiz-adv-x="728" 
d="M640 124q-3 -36 -33 -90q-49 -88 -154 -111q-37 -8 -161 -8q-163 0 -225 33q-89 47 -89 193q0 21 4 77q1 18 4 64q4 55 20 64q9 7 63 15q36 5 38 37q11 174 98 242q67 52 207 52q98 0 137 -14q78 -28 111 -124q14 -39 11 -70zM528 116l33 375q1 11 -9.5 32.5t-19.5 30.5
q-21 21 -50 26q-6 1 -80 1h-74q-34 -5 -64 -34q-34 -32 -36 -57l-33 -377q-2 -27 26.5 -54.5t56.5 -31.5q7 -1 77 -1h35q-2 0 26 1h17q24 0 58.5 32.5t36.5 56.5zM161 779q-2 -23 14 -37.5t39 -14.5q26 0 49 25q46 50 51 53q14 -11 46 -53q19 -25 46 -25q33 0 80 50
q20 22 72 78q14 15 16 38q2 22 -14.5 36t-39.5 14q-24 0 -55 -29q-22 -25 -45 -49q-10 10 -46 55q-18 23 -46 23q-27 0 -90 -61q-34 -32 -46 -47q-29 -34 -31 -56z" />
    <glyph glyph-name="Odieresis" unicode="&#xd6;" horiz-adv-x="728" 
d="M641 124q-3 -35 -33 -90q-48 -88 -154 -111q-37 -8 -161 -8q-163 0 -225 33q-89 47 -89 193q0 52 5 108q8 87 23 97q12 8 63 15q36 5 38 37q10 174 98 242q67 52 207 52q99 0 138 -14q78 -28 110 -124q14 -43 12 -70zM530 116l32 375q1 10 -9.5 32.5t-18.5 30.5
q-20 20 -51 26q-5 1 -79 1h-75q-33 -5 -64 -34q-34 -32 -36 -57l-33 -377q-2 -26 27 -54.5t56 -31.5q9 -1 78 -1h34q-2 0 27 1h17q22 0 57.5 33.5t37.5 55.5zM354 839q-3 -32 -24.5 -51.5t-53.5 -19.5q-31 0 -49.5 20t-15.5 51q3 32 24.5 51.5t53.5 19.5q31 0 49.5 -20
t15.5 -51zM538 839q-3 -32 -24.5 -51.5t-53.5 -19.5q-31 0 -49.5 20t-15.5 51q3 32 24.5 51.5t53.5 19.5q31 0 49.5 -20t15.5 -51z" />
    <glyph glyph-name="Oslash" unicode="&#xd8;" 
d="M651 124q-3 -36 -33 -90q-49 -88 -154 -111q-37 -8 -161 -8q-163 0 -225 33q-89 47 -89 193q0 21 4 77q1 18 4 64q4 55 20 64q9 7 63 15q36 5 38 37q11 174 98 242q67 52 207 52q75 0 116 -8q7 -1 27.5 -11t24.5 -10q3 0 11 9.5t10 10.5q16 9 35 9q22 0 36 -17.5
t13 -39.5q-3 -10 -16 -29.5t-16 -29.5q0 -10 9.5 -48.5t8.5 -43.5zM538 116l27 306q-33 -49 -126 -190q-14 -24 -52 -87.5t-77 -63.5q-20 0 -36 14t-16 34q0 6 2 11l266 425q-10 6 -33 15q-6 1 -80 1h-74q-34 -5 -64 -34q-34 -32 -36 -57l-33 -377q-2 -27 26 -54.5t56 -31.5
q7 -1 78 -1h35q-2 0 26 1h17q24 0 58 32.5t36 56.5z" />
    <glyph glyph-name="Ugrave" unicode="&#xd9;" 
d="M632 38q-3 -36 -53 -79.5t-86 -43.5h-499q-12 0 -24.5 13.5t-11.5 25.5l32 366q1 17 16 26q11 7 63 17q36 7 39 36l23 254q2 19 22 30q16 9 37 9q20 0 35 -9q19 -11 17 -29l-55 -628h309q6 0 16 9t10 15l53 603q2 19 22 30q16 9 37 9q20 0 35 -9q19 -11 17 -29zM423 833
l6 -61q0 -52 -51 -52q-46 0 -58 39q-2 5 -8 71l-6 62q0 50 52 50q46 0 58 -41q0 -2 7 -68z" />
    <glyph glyph-name="Uacute" unicode="&#xda;" 
d="M632 38q-3 -36 -53 -79.5t-86 -43.5h-499q-12 0 -24.5 13.5t-11.5 25.5l32 366q1 17 16 26q11 7 63 17q36 7 39 36l23 254q2 19 22 30q16 9 37 9q20 0 35 -9q19 -11 17 -29l-55 -628h309q6 0 16 9t10 15l53 603q2 19 22 30q16 9 37 9q20 0 35 -9q19 -11 17 -29zM295 756
q0 -36 43 -36q46 0 65 39q5 9 21.5 74t16.5 74q0 35 -44 35q-46 0 -66 -41q-1 -4 -18.5 -70.5t-17.5 -74.5z" />
    <glyph glyph-name="Ucircumflex" unicode="&#xdb;" 
d="M630 38q-3 -37 -52.5 -80t-86.5 -43h-499q-13 0 -24.5 13t-10.5 26l32 366q2 23 30 33q5 2 48 10q36 7 39 36l23 254q2 19 22 30q16 9 37 9q20 0 35 -9q19 -11 17 -29l-55 -628h309q6 0 16 9t10 15l53 603q2 19 22 30q16 9 37 9q20 0 35 -9q19 -11 17 -29zM275 742
q-25 25 -74 72l85 91q50 51 92 83q54 -54 151 -170q-29 -27 -87 -76q-12 15 -39 44.5t-39 44.5z" />
    <glyph glyph-name="Udieresis" unicode="&#xdc;" 
d="M634 38q-3 -36 -53 -79.5t-86 -43.5h-499q-13 0 -25 13t-11 26l32 366q2 23 30 33q6 2 48 10q37 7 40 36l22 254q2 19 22 30q16 9 37 9q20 0 35 -9q19 -11 17 -29l-55 -628h309q6 0 16 9t11 15l53 603q3 39 59 39q20 0 35 -9q19 -11 17 -29zM354 839q-3 -32 -24.5 -51.5
t-53.5 -19.5q-31 0 -49.5 20t-15.5 51q3 32 24.5 51.5t53.5 19.5q31 0 49.5 -20t15.5 -51zM538 839q-3 -32 -24.5 -51.5t-53.5 -19.5q-31 0 -49.5 20t-15.5 51q3 32 24.5 51.5t53.5 19.5q31 0 49.5 -20t15.5 -51z" />
    <glyph glyph-name="Yacute" unicode="&#xdd;" 
d="M648 218q-9 -104 -24 -145q-32 -90 -120 -133q-51 -25 -92 -25h-329q-9 0 -30 10q-94 44 -85 143q6 69 62 69q51 0 51 -44q0 -7 -3 -20.5t-3 -20.5q0 -30 67 -30q19 0 43 2l24 2q27 0 109 1q26 0 61.5 30.5t37.5 55.5l11 135h-234q-15 0 -45.5 8.5t-42.5 16.5
q-55 34 -78.5 74.5t-23.5 103.5q0 25 7 101l9 98q12 42 59 42q20 0 35 -9q19 -11 17 -29l-18 -208q1 -2 5 -11q-5 -19 26 -47.5t52 -28.5h242l26 294q3 39 59 39q20 0 35 -9q19 -11 17 -29l-22 -256q-3 -31 40 -38q50 -8 53 -14q9 -13 9 -48q0 -1 -7 -80zM295 756
q0 -36 43 -36q46 0 65 39q5 9 21.5 74t16.5 74q0 35 -44 35q-46 0 -66 -41q-1 -4 -18.5 -70.5t-17.5 -74.5z" />
    <glyph glyph-name="agrave" unicode="&#xe0;" horiz-adv-x="602" 
d="M534 81q-1 -25 -7 -91q-9 -75 -47 -75h-388q-10 0 -30 10q-85 42 -85 124q0 8 2 32q10 121 111 157q28 10 32 10h202q4 14 7 45q2 22 2 29q0 37 -21 37h-158q-20 0 -29 19q-8 16 -6 37q5 57 75 57q9 0 26 -1t26 -1q77 0 93 -3q41 -8 72.5 -43.5t33.5 -77.5q0 -7 -4 -23
t-4 -24q0 -19 14 -37q8 -10 42 -14t42 -12q11 -13 8 -49q-2 -18 -9 -106zM307 26l9 111h-189q-32 0 -37 -56q-5 -55 20 -55h197zM374 623l6 -61q0 -52 -52 -52q-45 0 -57 39q-2 5 -8 71l-6 62q0 50 52 50q46 0 58 -41q0 -2 7 -68z" />
    <glyph glyph-name="aacute" unicode="&#xe1;" horiz-adv-x="602" 
d="M534 81q-1 -25 -7 -91q-9 -75 -47 -75h-388q-10 0 -30 10q-85 42 -85 124q0 8 2 32q10 121 111 157q28 10 32 10h202q4 14 7 45q2 22 2 29q0 37 -21 37h-158q-20 0 -29 19q-8 16 -6 37q5 57 75 57q9 0 26 -1t26 -1q77 0 93 -3q41 -8 72.5 -43.5t33.5 -77.5q0 -7 -4 -23
t-4 -24q0 -19 14 -37q8 -10 42 -14t42 -12q11 -13 8 -49q-2 -18 -9 -106zM307 26l9 111h-189q-32 0 -37 -56q-5 -55 20 -55h197zM245 546q0 -36 44 -36q46 0 65 39q4 8 21 74.5t17 73.5q0 35 -44 35q-46 0 -66 -41q-2 -4 -19.5 -70.5t-17.5 -74.5z" />
    <glyph glyph-name="acircumflex" unicode="&#xe2;" horiz-adv-x="605" 
d="M534 81q-5 -62 -7 -91q-12 -75 -47 -75h-388q-10 0 -30 10q-85 42 -85 124q0 20 1 32q10 121 112 157q28 10 31 10h202q4 14 7 45q2 22 2 29q0 37 -21 37h-158q-19 0 -28 20q-8 16 -6 36q5 57 74 57q9 0 26.5 -1t26.5 -1q77 0 93 -3q40 -8 72 -44t34 -77q0 -7 -4.5 -23
t-4.5 -24q0 -30 21 -42q9 -5 41 -10q29 -4 36.5 -12.5t7.5 -47.5q0 -15 -8 -106zM306 26l10 111h-190q-32 0 -37 -56q-4 -55 20 -55h197zM214 497q-25 25 -74 72l85 91q50 52 93 83q53 -54 151 -170q-30 -27 -87 -76q-12 15 -39 44.5t-39 44.5z" />
    <glyph glyph-name="atilde" unicode="&#xe3;" horiz-adv-x="607" 
d="M536 81q-5 -62 -7 -91q-13 -75 -47 -75h-388q-10 0 -30 10q-86 42 -86 124q0 10 2 32q11 121 111 157q28 10 32 10h202q4 14 7 45q2 22 2 29q0 37 -21 37h-158q-39 0 -35 56q4 57 75 57q9 0 26 -1t26 -1q78 0 93 -3q41 -8 72.5 -43.5t33.5 -77.5q1 -6 -3.5 -23.5
t-4.5 -23.5q0 -30 21 -42q9 -5 41 -10q29 -4 36.5 -12.5t7.5 -47.5q0 -15 -8 -106zM308 26l10 111h-190q-32 0 -37 -56q-5 -55 20 -55h197zM90 539q-2 -23 14 -37.5t39 -14.5q26 0 49 25q43 46 52 53q12 -9 45 -53q19 -25 47 -25q33 0 80 50q19 22 71 78q14 15 16 38
t-14 36.5t-39 13.5q-24 0 -56 -29q-1 -1 -45 -49q-12 12 -46 55q-18 23 -46 23q-27 0 -90 -61q-34 -32 -46 -47q-29 -34 -31 -56z" />
    <glyph glyph-name="adieresis" unicode="&#xe4;" horiz-adv-x="606" 
d="M538 81q-1 -25 -7 -91q-9 -75 -47 -75h-388q-10 0 -30 10q-85 42 -85 124q0 8 2 32q10 121 111 157q28 10 32 10h202q4 14 7 45q2 22 2 29q0 37 -21 37h-158q-20 0 -29 19q-8 16 -6 37q5 57 75 57q9 0 26 -1t26 -1q77 0 93 -3q41 -8 72.5 -43.5t33.5 -77.5q0 -7 -4 -23
t-4 -24q0 -19 14 -37q8 -10 42 -14t42 -12q11 -13 8 -49q-2 -18 -9 -106zM311 26l9 111h-189q-32 0 -37 -56q-5 -55 20 -55h197zM262 569q-3 -32 -24.5 -51.5t-53.5 -19.5t-49.5 19.5t-14.5 51.5t24 51.5t53 19.5q31 0 49.5 -20t15.5 -51zM446 569q-3 -32 -24.5 -51.5
t-53.5 -19.5t-49.5 19.5t-14.5 51.5t24 51.5t53 19.5q31 0 49.5 -20t15.5 -51z" />
    <glyph glyph-name="aring" unicode="&#xe5;" horiz-adv-x="598" 
d="M536 81q-5 -62 -7 -91q-13 -75 -47 -75h-388q-10 0 -30 10q-85 42 -85 124q0 20 1 32q10 121 111 157q28 10 32 10h202q4 14 7 45q2 22 2 29q0 37 -21 37h-158q-39 0 -34 56q5 57 74 57q9 0 26.5 -1t26.5 -1q77 0 93 -3q41 -8 72 -43.5t33 -77.5q1 -6 -3.5 -23.5
t-4.5 -23.5q0 -30 21 -42q9 -5 41 -10q29 -4 36.5 -12.5t7.5 -47.5q0 -15 -8 -106zM308 26l10 111h-190q-32 0 -37 -56q-4 -55 20 -55h197zM197 619q3 33 28.5 56.5t58.5 23.5t54.5 -23.5t18.5 -56.5t-28.5 -56.5t-58.5 -23.5t-54.5 23.5t-18.5 56.5zM253 621q-2 -27 24 -27
q27 0 29 27t-24 27q-27 0 -29 -27z" />
    <glyph glyph-name="ae" unicode="&#xe6;" horiz-adv-x="817" 
d="M772 218q-8 -81 -46 -81h-236q-3 -2 -4 -13q-2 -29 26 -63.5t57 -34.5h110q18 0 28 -20q9 -16 7 -36q-1 -17 -14.5 -36t-29.5 -19h-566q-10 0 -30 10q-85 42 -85 124q0 20 1 32q10 121 111 157q28 10 32 10h202q4 14 7 45q2 22 2 29q0 37 -21 37h-158q-39 0 -35 56
q4 57 75 57q9 0 26.5 -1t26.5 -1q68 0 87 -3q51 -8 81 -45q26 21 68.5 34.5t77.5 13.5q99 0 152 -62q50 -58 50 -158q0 -11 -2 -32zM664 249l1 20q1 21 -16.5 48t-61.5 41q-3 1 -24 1q-37 0 -76 -27.5t-43 -63.5l-2 -19h222zM255 26l10 111h-127q-32 0 -37 -56
q-5 -55 20 -55h134z" />
    <glyph glyph-name="egrave" unicode="&#xe8;" horiz-adv-x="598" 
d="M546 218q-8 -81 -46 -81h-292q-2 -2 -3 -13q-3 -30 25 -64t57 -34h166q18 0 27.5 -18.5t7.5 -37.5q-4 -52 -43 -54q-18 -1 -136 -1q-171 0 -236 32q-89 44 -89 173q0 22 2 43q4 43 9 55q11 28 42 28q46 0 60 12q9 9 26 55q15 40 22 53q25 44 88 75q59 29 113 29
q99 0 152 -62q50 -58 50 -158q0 -11 -2 -32zM438 249l1 20q1 12 -9 32.5t-19 29.5q-15 15 -50 27q-5 1 -25 1q-37 0 -74 -27q-40 -29 -44 -64l-2 -19h222zM374 623l6 -61q0 -52 -52 -52q-45 0 -57 39q-2 5 -8 71l-6 62q0 50 52 50q46 0 58 -41q0 -2 7 -68z" />
    <glyph glyph-name="eacute" unicode="&#xe9;" horiz-adv-x="597" 
d="M546 218q-8 -81 -46 -81h-292q-2 -2 -3 -13q-3 -30 25 -64t57 -34h166q18 0 27.5 -18.5t7.5 -37.5q-4 -52 -43 -54q-18 -1 -136 -1q-171 0 -236 32q-89 44 -89 173q0 22 2 43q4 43 9 55q11 28 42 28q46 0 60 12q9 9 26 55q15 40 22 53q25 44 88 75q59 29 113 29
q99 0 152 -62q50 -58 50 -158q0 -11 -2 -32zM438 249l1 20q1 12 -9 32.5t-19 29.5q-15 15 -50 27q-5 1 -25 1q-37 0 -74 -27q-40 -29 -44 -64l-2 -19h222zM245 546q0 -36 44 -36q46 0 65 39q4 8 21 74.5t17 73.5q0 35 -44 35q-46 0 -66 -41q-2 -4 -19.5 -70.5t-17.5 -74.5z
" />
    <glyph glyph-name="ecircumflex" unicode="&#xea;" horiz-adv-x="601" 
d="M546 218q-7 -81 -47 -81h-291q-3 -2 -4 -13q-3 -30 25 -64t58 -34h166q18 0 28 -20q8 -16 6 -36q-2 -27 -17 -42q-14 -18 -114 -15q-29 1 -42.5 1.5t-5.5 0.5q-171 0 -236 32q-88 43 -88 173q0 29 1 43q3 40 9 55q11 28 42 28q46 0 59 12q11 9 27 53q15 40 23 55
q25 44 88 75q59 29 113 29q98 0 151 -62q50 -58 50 -158q0 -20 -1 -32zM437 249l2 20q1 10 -9.5 32t-18.5 30q-15 15 -51 27q-3 1 -24 1q-36 0 -75.5 -28t-43.5 -63l-2 -19h222zM268 497q-25 25 -74 72l85 91q50 52 93 83q53 -54 151 -170q-30 -27 -87 -76q-12 15 -39 44.5
t-39 44.5z" />
    <glyph glyph-name="edieresis" unicode="&#xeb;" horiz-adv-x="603" 
d="M550 218q-8 -81 -46 -81h-292q-2 -2 -3 -13q-3 -30 25 -64t57 -34h166q18 0 27.5 -18.5t7.5 -37.5q-4 -52 -43 -54q-18 -1 -136 -1q-171 0 -236 32q-89 44 -89 173q0 22 2 43q4 43 9 55q11 28 42 28q45 0 59 12q10 9 26.5 52t23.5 56q26 47 94 78q57 26 106 26
q99 0 152 -62q50 -58 50 -158q0 -11 -2 -32zM442 249l1 20q1 15 -11 38q-18 36 -67 51q-5 1 -25 1q-37 0 -74 -27q-40 -29 -44 -64l-2 -19h222zM339 569q-3 -32 -24.5 -51.5t-53.5 -19.5t-49.5 19.5t-14.5 51.5t24 51.5t53 19.5q31 0 49.5 -20t15.5 -51zM523 569
q-3 -32 -24.5 -51.5t-53.5 -19.5t-49.5 19.5t-14.5 51.5t24 51.5t53 19.5q31 0 49.5 -20t15.5 -51z" />
    <glyph glyph-name="igrave" unicode="&#xec;" horiz-adv-x="282" 
d="M190 -47q-3 -31 -53 -37q-8 -1 -62 -1q-72 0 -80 3q-24 9 -24 60q0 12 8 103l7 80q6 67 19 74q3 2 65 15q36 8 38 37l12 144q1 18 22 29q18 10 37 10t35 -9q20 -11 18 -29zM234 623l6 -61q0 -52 -52 -52q-45 0 -57 39q-2 5 -8 71l-6 62q0 50 52 50q46 0 58 -41
q0 -2 7 -68z" />
    <glyph glyph-name="iacute" unicode="&#xed;" horiz-adv-x="302" 
d="M190 -47q-3 -31 -53 -37q-8 -1 -62 -1q-72 0 -80 3q-24 9 -24 60q0 12 8 103l7 80q6 67 19 74q3 2 65 15q36 8 38 37l12 144q1 18 22 29q18 10 37 10t35 -9q20 -11 18 -29zM136 546q0 -36 44 -36q46 0 65 39q4 8 21 74.5t17 73.5q0 35 -44 35q-46 0 -66 -41
q-2 -4 -19.5 -70.5t-17.5 -74.5z" />
    <glyph glyph-name="icircumflex" unicode="&#xee;" horiz-adv-x="313" 
d="M189 -47q-3 -31 -52 -37q-8 -1 -62 -1q-72 0 -80 3q-25 9 -25 60q0 17 8 103q5 54 8 80q8 69 19 74q6 3 64 15q35 7 38 37l13 144q2 18 21 28.5t38 10.5q20 0 35 -9q19 -11 17 -29zM102 497q-25 25 -74 72l85 91q50 52 93 83q53 -54 151 -170q-30 -27 -87 -76
q-12 15 -39 44.5t-39 44.5z" />
    <glyph glyph-name="idieresis" unicode="&#xef;" horiz-adv-x="308" 
d="M194 -47q-3 -31 -53 -37q-8 -1 -62 -1q-72 0 -80 3q-24 9 -24 60q0 12 8 103l7 80q6 67 19 74q3 1 65 15q35 8 38 37l13 144q2 18 22 29q17 10 37 10t35 -9q19 -11 17 -29zM172 569q-3 -32 -24.5 -51.5t-53.5 -19.5t-49.5 19.5t-14.5 51.5t24 51.5t53 19.5q31 0 49.5 -20
t15.5 -51zM356 569q-3 -32 -24.5 -51.5t-53.5 -19.5t-49.5 19.5t-14.5 51.5t24 51.5t53 19.5q31 0 49.5 -20t15.5 -51z" />
    <glyph glyph-name="ntilde" unicode="&#xf1;" horiz-adv-x="726" 
d="M649 111q-3 -41 -13 -154q-4 -42 -59 -42q-19 0 -35 10q-20 12 -18 29l28 318q3 30 -33 60q-27 23 -53 26q-10 0 -61 1h-45l-20 2q-10 1 -36 1q-78 0 -80 -26l-33 -383q-3 -31 -53 -37q-8 -1 -61 -1q-75 0 -81 2q-24 9 -24 61q0 12 8 103l7 80q6 69 20 75q10 4 44 9
q28 5 42 15t16 40q3 39 6 47q49 123 155 123h92q144 0 194 -21q99 -41 106 -180q-2 -26 -13 -158zM220 539q-2 -23 14 -37.5t39 -14.5q26 0 49 25q43 46 52 53q12 -9 45 -53q19 -25 47 -25q33 0 80 50q19 22 71 78q14 15 16 38t-14 36.5t-39 13.5q-24 0 -56 -29
q-1 -1 -45 -49q-12 12 -46 55q-18 23 -46 23q-27 0 -90 -61q-34 -32 -46 -47q-29 -34 -31 -56z" />
    <glyph glyph-name="ograve" unicode="&#xf2;" horiz-adv-x="711" 
d="M655 193q-16 -182 -114 -239q-67 -39 -243 -39q-150 0 -210 26q-104 45 -104 184q0 17 2 38q5 52 11 62q11 19 53 23q36 4 48 15t20 46q14 62 82 111t133 49h14q24 1 23 1h32q128 0 188 -46q68 -52 68 -176q0 -21 -3 -55zM544 193q3 35 3 55q0 72 -44 95q-30 16 -111 16
q-103 0 -137.5 -31.5t-43.5 -134.5q-3 -35 -3 -56q0 -72 44 -95q30 -16 111 -16q102 0 137 32.5t44 134.5zM374 623l6 -61q0 -52 -52 -52q-45 0 -57 39q-2 5 -8 71l-6 62q0 50 52 50q46 0 58 -41q0 -2 7 -68z" />
    <glyph glyph-name="oacute" unicode="&#xf3;" horiz-adv-x="711" 
d="M655 193q-16 -182 -114 -239q-67 -39 -243 -39q-150 0 -210 26q-104 45 -104 184q0 17 2 38q5 52 11 62q11 19 53 23q36 4 48 15t20 46q14 62 82 111t133 49h14q24 1 23 1h32q128 0 188 -46q68 -52 68 -176q0 -21 -3 -55zM544 193q3 35 3 55q0 72 -44 95q-30 16 -111 16
q-103 0 -137.5 -31.5t-43.5 -134.5q-3 -35 -3 -56q0 -72 44 -95q30 -16 111 -16q102 0 137 32.5t44 134.5zM245 546q0 -36 44 -36q46 0 65 39q4 8 21 74.5t17 73.5q0 35 -44 35q-46 0 -66 -41q-2 -4 -19.5 -70.5t-17.5 -74.5z" />
    <glyph glyph-name="ocircumflex" unicode="&#xf4;" horiz-adv-x="724" 
d="M655 193q-15 -181 -115 -239q-67 -39 -243 -39q-149 0 -209 26q-104 45 -104 184q0 25 1 38q4 50 12 62q12 19 53 23q36 4 48 15t20 46q14 62 82 111t133 49h13q24 1 23 1h32q128 0 188 -45q68 -53 68 -177q0 -31 -2 -55zM544 193q2 24 2 55q0 72 -43 95q-30 16 -112 16
q-103 0 -137.5 -31.5t-43.5 -134.5q-3 -35 -3 -56q0 -72 44 -95q30 -16 111 -16q102 0 135 28q38 32 47 139zM314 497q-25 25 -74 72l85 91q50 52 93 83q53 -54 151 -170q-30 -27 -87 -76q-12 15 -39 44.5t-39 44.5z" />
    <glyph glyph-name="otilde" unicode="&#xf5;" horiz-adv-x="723" 
d="M656 193q-16 -182 -114 -239q-67 -39 -243 -39q-150 0 -210 26q-104 45 -104 184q0 17 2 38q5 50 12 62q11 19 53 23q35 4 47 14.5t20 46.5q14 62 82 111t133 49h14q24 1 23 1h32q128 0 188 -45q68 -53 68 -177q0 -21 -3 -55zM545 193q3 35 3 55q0 72 -44 95
q-30 16 -111 16q-103 0 -137.5 -31.5t-43.5 -134.5q-3 -35 -3 -56q0 -72 44 -95q30 -16 111 -16q102 0 137 32.5t44 134.5zM210 539q-2 -23 14 -37.5t39 -14.5q26 0 49 25q43 46 52 53q12 -9 45 -53q19 -25 47 -25q33 0 80 50q19 22 71 78q14 15 16 38t-14 36.5t-39 13.5
q-24 0 -56 -29q-1 -1 -45 -49q-12 12 -46 55q-18 23 -46 23q-27 0 -90 -61q-34 -32 -46 -47q-29 -34 -31 -56z" />
    <glyph glyph-name="odieresis" unicode="&#xf6;" horiz-adv-x="725" 
d="M659 193q-16 -182 -114 -239q-67 -39 -243 -39q-150 0 -210 26q-104 45 -104 184q0 17 2 38q5 52 11 62q11 19 53 23q36 4 48 15t20 46q14 62 82 111t133 49h14q24 1 23 1h32q128 0 188 -46q68 -52 68 -176q0 -21 -3 -55zM548 193q3 35 3 55q0 72 -44 95q-30 16 -111 16
q-103 0 -137.5 -31.5t-43.5 -134.5q-3 -35 -3 -56q0 -72 44 -95q30 -16 111 -16q102 0 137 32.5t44 134.5zM383 569q-3 -32 -24.5 -51.5t-53.5 -19.5t-49.5 19.5t-14.5 51.5t24 51.5t53 19.5q31 0 49.5 -20t15.5 -51zM567 569q-3 -32 -24.5 -51.5t-53.5 -19.5t-49.5 19.5
t-14.5 51.5t24 51.5t53 19.5q31 0 49.5 -20t15.5 -51z" />
    <glyph glyph-name="oslash" unicode="&#xf8;" 
d="M667 193q-16 -182 -115 -239q-67 -39 -243 -39q-149 0 -210 26q-103 44 -103 184q0 25 1 38q4 50 12 62q12 19 53 23q35 4 47.5 15t20.5 46q13 61 83 111q67 49 131 49h14q24 1 23 1h32q62 0 113 -9q7 -1 29 -10.5t26 -9.5q5 0 13 8l8 9q22 12 37 12q19 0 33.5 -19.5
t13.5 -39.5q-1 -11 -12.5 -28t-21.5 -22q20 -43 20 -99q0 -12 -5 -69zM555 193q5 57 3 85q-68 -64 -145 -133q-91 -82 -119 -82q-23 0 -37 15.5t-12 38.5q2 24 118 129q51 46 121 108l-149 5q-76 -21 -97 -70q-9 -21 -16 -96q-3 -32 -3 -56q0 -72 44 -95q30 -16 111 -16
q103 0 137.5 31.5t43.5 135.5z" />
    <glyph glyph-name="ugrave" unicode="&#xf9;" horiz-adv-x="615" 
d="M531 38q-1 -16 -26 -50.5t-39 -41.5q-18 -12 -55 -27q-26 -4 -128 -4q-146 0 -208 31q-91 45 -91 177q0 15 2 40q5 62 19 72q7 5 61 16q40 8 42 36l12 144q1 18 22 29q18 10 37 10t35 -9q20 -11 18 -29l-28 -320q-3 -29 32 -58q28 -23 49 -27q14 -2 46 -2q15 0 47 1
q2 -1 4 -1q36 3 38 25l34 381q3 39 59 39q20 0 35 -9q19 -11 17 -29zM374 623l6 -61q0 -52 -52 -52q-45 0 -57 39q-2 5 -8 71l-6 62q0 50 52 50q46 0 58 -41q0 -2 7 -68z" />
    <glyph glyph-name="uacute" unicode="&#xfa;" horiz-adv-x="615" 
d="M531 38q-1 -16 -26 -50.5t-39 -41.5q-18 -12 -55 -27q-26 -4 -128 -4q-146 0 -208 31q-91 45 -91 177q0 15 2 40q5 62 19 72q7 5 61 16q40 8 42 36l12 144q1 18 22 29q18 10 37 10t35 -9q20 -11 18 -29l-28 -320q-3 -29 32 -58q28 -23 49 -27q14 -2 46 -2q15 0 47 1
q2 -1 4 -1q36 3 38 25l34 381q3 39 59 39q20 0 35 -9q19 -11 17 -29zM245 546q0 -36 44 -36q46 0 65 39q4 8 21 74.5t17 73.5q0 35 -44 35q-46 0 -66 -41q-2 -4 -19.5 -70.5t-17.5 -74.5z" />
    <glyph glyph-name="ucircumflex" unicode="&#xfb;" horiz-adv-x="616" 
d="M530 38q-3 -33 -65 -92q-17 -12 -54 -27q-26 -4 -129 -4q-145 0 -207 31q-91 45 -91 177q0 28 1 40q5 60 20 72q7 6 60 16q39 8 42 36l13 144q2 18 21 28.5t38 10.5q20 0 35 -9q19 -11 17 -29l-28 -320q-2 -26 27.5 -55t56.5 -30q23 -1 53 -1q52 0 42 -1q36 3 38 25
l33 381q2 19 22 30q16 9 37 9q20 0 35 -9q19 -11 17 -29zM255 497q-25 25 -74 72l85 91q50 52 93 83q53 -54 151 -170q-30 -27 -87 -76q-12 15 -39 44.5t-39 44.5z" />
    <glyph glyph-name="udieresis" unicode="&#xfc;" horiz-adv-x="612" 
d="M535 38q-1 -16 -26 -50.5t-39 -41.5q-18 -12 -55 -27q-26 -4 -128 -4q-146 0 -208 31q-91 45 -91 177q0 15 2 40q5 62 19 72q7 5 61 16q39 8 42 36l13 144q2 18 22 29q17 10 37 10t35 -9q19 -11 17 -29l-28 -320q-3 -29 32 -58q28 -23 49 -27q14 -2 46 -2q15 0 47 1
q2 -1 4 -1q37 3 39 25l33 381q3 39 59 39q18 0 35 -9q18 -12 17 -29zM332 569q-3 -32 -24.5 -51.5t-53.5 -19.5t-49.5 19.5t-14.5 51.5t24 51.5t53 19.5q31 0 49.5 -20t15.5 -51zM516 569q-3 -32 -24.5 -51.5t-53.5 -19.5t-49.5 19.5t-14.5 51.5t24 51.5t53 19.5
q31 0 49.5 -20t15.5 -51z" />
    <glyph glyph-name="yacute" unicode="&#xfd;" horiz-adv-x="607" 
d="M542 53q-7 -88 -16 -158q-33 -136 -135 -178q-56 -23 -188 -23q-11 0 -32.5 -1t-32.5 -1q-36 0 -51 10q-19 13 -16 47q3 33 20 46q15 10 50 11h66q26 0 61 30.5t37 55.5l2 24h-123q-31 0 -88 25q-101 44 -101 192q0 8 10 142q6 74 14 154q4 42 59 42q20 0 35 -9
q19 -11 17 -29l-28 -319q1 -2 6 -11q-5 -20 26 -48t52 -28h131l35 405q2 19 22 30q16 9 37 9q19 0 35 -9q20 -11 18 -29l-13 -145q-2 -23 19 -33q9 -4 42 -8q27 -3 33 -11q11 -15 10 -29q-6 -61 -13 -154zM255 546q0 -36 44 -36q46 0 65 39q4 8 21 74.5t17 73.5q0 35 -44 35
q-46 0 -66 -41q-2 -4 -19.5 -70.5t-17.5 -74.5z" />
    <glyph glyph-name="ydieresis" unicode="&#xff;" horiz-adv-x="608" 
d="M546 53q-7 -88 -16 -158q-33 -136 -135 -178q-56 -23 -188 -23q-11 0 -32.5 -1t-32.5 -1q-36 0 -51 10q-19 13 -16 47q3 33 20 46q15 10 50 11h66q26 0 61 30.5t37 55.5l2 24h-123q-31 0 -88 25q-101 44 -101 192q2 24 11 142q3 41 13 154q4 42 59 42q20 0 35 -9
q19 -11 17 -29l-28 -319q1 -2 6 -11q-5 -19 26 -47.5t52 -28.5h131l35 405q3 39 60 39q20 0 35 -9q19 -11 17 -29l-13 -145q-2 -23 19 -33q9 -4 42 -8q27 -3 33 -11q11 -15 10 -29q-6 -61 -13 -154zM251 569q-3 -32 -24 -51.5t-53 -19.5q-31 0 -49.5 20t-15.5 51
q3 32 24.5 51.5t53.5 19.5t49.5 -19.5t14.5 -51.5zM435 569q-3 -32 -24 -51.5t-53 -19.5q-31 0 -49.5 20t-15.5 51q3 32 24.5 51.5t53.5 19.5t49.5 -19.5t14.5 -51.5z" />
  </font>
</defs>
</svg>
